M48
;Layer_Color=9474304
;FILE_FORMAT=4:2
METRIC,LZ
T15F00S00C5.08
%
G90
G05
T15
G00X015965Y003233
M15
G01X015981Y003232
G01X016006Y003234
G01X016043Y003239
G01X016107Y003256
G01X016141Y00327
G01X016198Y003303
G01X016227Y003326
G01X016274Y003373
G01X016297Y003402
G01X01633Y003459
G01X016344Y003493
G01X016361Y003557
G01X016366Y003594
G01X016368Y003627
G01X016367Y012465
G01X016368Y012481
G01X016366Y012506
G01X016361Y012543
G01X016344Y012607
G01X01633Y012641
G01X016297Y012698
G01X016274Y012727
G01X016227Y012774
G01X016198Y012797
G01X016141Y01283
G01X016107Y012844
G01X016043Y012861
G01X016006Y012866
G01X015973Y012868
G01X004135Y012867
G01X004119Y012868
G01X004094Y012866
G01X004057Y012861
G01X003993Y012844
G01X003959Y01283
G01X003902Y012797
G01X003873Y012774
G01X003826Y012727
G01X003803Y012698
G01X00377Y012641
G01X003756Y012607
G01X003739Y012543
G01X003734Y012506
G01X003732Y012473
G01X003733Y003635
G01X003732Y003619
G01X003734Y003594
G01X003739Y003557
G01X003756Y003493
G01X00377Y003459
G01X003803Y003402
G01X003826Y003373
G01X003873Y003326
G01X003902Y003303
G01X003959Y00327
G01X003993Y003256
G01X004057Y003239
G01X004094Y003234
G01X004127Y003232
G01X015965Y003233
M16
M17
M30
