G04*
G04 #@! TF.GenerationSoftware,Altium Limited,Altium Designer,25.2.1 (25)*
G04*
G04 Layer_Physical_Order=1*
G04 Layer_Color=255*
%FSLAX43Y43*%
%MOMM*%
G71*
G04*
G04 #@! TF.SameCoordinates,0A798D29-7D92-4AD3-8B22-41AEFD2D755B*
G04*
G04*
G04 #@! TF.FilePolarity,Positive*
G04*
G01*
G75*
%ADD10C,0.254*%
%ADD16R,0.300X0.550*%
%ADD17R,0.400X0.550*%
%ADD18R,0.550X0.300*%
%ADD19R,0.550X0.400*%
%ADD20R,0.600X0.530*%
%ADD21R,0.530X0.600*%
%ADD22R,0.700X0.200*%
%ADD23R,1.270X5.080*%
%ADD24R,2.200X1.200*%
%ADD25R,1.400X1.600*%
%ADD26R,1.600X0.700*%
%ADD27R,1.400X1.200*%
%ADD28R,1.000X1.420*%
%ADD29R,0.490X0.600*%
%ADD30R,0.300X1.400*%
%ADD31R,2.210X1.790*%
%ADD32R,1.150X0.600*%
%ADD33R,1.000X0.400*%
%ADD34R,0.600X0.490*%
%ADD35R,0.420X0.700*%
%ADD36R,0.420X0.540*%
%ADD37R,2.370X1.710*%
%ADD38R,5.500X2.000*%
%ADD39R,1.420X1.000*%
%ADD40R,1.450X0.450*%
%ADD41R,0.600X1.150*%
G04:AMPARAMS|DCode=42|XSize=3.85mm|YSize=3.85mm|CornerRadius=0mm|HoleSize=0mm|Usage=FLASHONLY|Rotation=90.000|XOffset=0mm|YOffset=0mm|HoleType=Round|Shape=RoundedRectangle|*
%AMROUNDEDRECTD42*
21,1,3.850,3.850,0,0,90.0*
21,1,3.850,3.850,0,0,90.0*
1,1,0.000,1.925,1.925*
1,1,0.000,1.925,-1.925*
1,1,0.000,-1.925,-1.925*
1,1,0.000,-1.925,1.925*
%
%ADD42ROUNDEDRECTD42*%
%ADD43C,0.300*%
%ADD44R,0.500X2.300*%
%ADD45R,2.000X2.500*%
%ADD46R,1.800X1.000*%
%ADD47R,2.710X3.350*%
%ADD48R,1.525X0.650*%
%ADD49R,0.600X1.250*%
%ADD50R,5.100X2.350*%
%ADD51R,1.000X1.100*%
%ADD52R,1.100X1.000*%
%ADD53R,1.470X0.970*%
%ADD54R,0.650X1.250*%
%ADD55R,1.550X0.700*%
%ADD118C,0.170*%
%ADD119C,0.148*%
%ADD120R,3.960X3.960*%
%ADD121C,5.800*%
%ADD122C,1.428*%
%ADD123C,2.300*%
%ADD124C,0.500*%
%ADD125R,1.500X1.500*%
%ADD126C,1.500*%
%ADD127C,3.350*%
%ADD128C,2.550*%
%ADD129R,1.508X1.508*%
%ADD130C,1.508*%
%ADD131C,1.408*%
%ADD132C,1.680*%
%ADD133R,1.500X1.500*%
%ADD134R,1.725X1.725*%
%ADD135C,1.725*%
%ADD136C,0.900*%
%ADD137O,2.200X4.400*%
%ADD138O,4.000X2.000*%
%ADD139O,2.000X4.000*%
%ADD140C,0.400*%
%ADD141C,1.270*%
G36*
X66750Y117250D02*
X66691Y117191D01*
X66551Y117097D01*
X66395Y117033D01*
X66231Y117000D01*
X66146Y117000D01*
X59854D01*
X59770Y116996D01*
X59606Y116963D01*
X59451Y116899D01*
X59312Y116806D01*
X59250Y116750D01*
Y113250D01*
X60646Y113250D01*
X60731Y113250D01*
X60895Y113217D01*
X61051Y113153D01*
X61124Y113104D01*
X61250Y113000D01*
X61250Y112834D01*
X61250Y110750D01*
X61250Y110691D01*
X61227Y110574D01*
X61181Y110464D01*
X61115Y110365D01*
X61073Y110323D01*
X61000Y110250D01*
X60250D01*
X60250Y111396D01*
X60246Y111480D01*
X60213Y111644D01*
X60149Y111799D01*
X60056Y111938D01*
X60000Y112000D01*
X59938Y112056D01*
X59799Y112149D01*
X59644Y112213D01*
X59553Y112231D01*
X59480Y112246D01*
X59396Y112250D01*
X59396Y112250D01*
X59396Y112250D01*
X59396Y112250D01*
X58250D01*
Y118043D01*
Y118211D01*
X58316Y118541D01*
X58444Y118852D01*
X58631Y119131D01*
X58750Y119250D01*
X66750Y119250D01*
X66750Y117250D01*
D02*
G37*
G36*
X137465Y109820D02*
X137507Y109758D01*
X137518Y109732D01*
X137550Y109578D01*
X137550Y109577D01*
X137550Y109577D01*
X137550Y109577D01*
X137550Y106739D01*
X137550Y106677D01*
X137511Y106561D01*
X137438Y106464D01*
X137337Y106394D01*
X137279Y106377D01*
X137218Y106359D01*
X137092Y106351D01*
X136968Y106370D01*
X136850Y106415D01*
X136777Y106464D01*
X136769Y106472D01*
X136689Y106609D01*
Y109847D01*
X137439Y109847D01*
X137465Y109820D01*
D02*
G37*
G36*
X124000Y116242D02*
Y108250D01*
X124005Y108201D01*
X124042Y108111D01*
X124111Y108042D01*
X124201Y108005D01*
X124250Y108000D01*
X127789D01*
Y105831D01*
X126265D01*
Y106235D01*
X126255Y106336D01*
X126178Y106521D01*
X126036Y106663D01*
X125850Y106740D01*
X125750Y106750D01*
X124250D01*
X124201Y106745D01*
X124111Y106708D01*
X124042Y106639D01*
X124005Y106549D01*
X124000Y106500D01*
Y94000D01*
X124010Y93902D01*
X124084Y93722D01*
X124222Y93584D01*
X124402Y93510D01*
X124500Y93500D01*
X128550D01*
X128642Y93462D01*
X128712Y93392D01*
X128750Y93300D01*
Y92000D01*
X123750D01*
X123652Y92000D01*
X123458Y92038D01*
X123276Y92114D01*
X123113Y92223D01*
X122973Y92363D01*
X122864Y92526D01*
X122788Y92708D01*
X122750Y92902D01*
X122750Y93000D01*
Y116219D01*
X122831Y116362D01*
X123880Y116362D01*
X124000Y116242D01*
D02*
G37*
G36*
X140083Y121923D02*
X140447Y121772D01*
X140775Y121553D01*
X141053Y121275D01*
X141272Y120947D01*
X141423Y120583D01*
X141500Y120197D01*
Y120000D01*
X141506Y119877D01*
X141554Y119637D01*
X141648Y119411D01*
X141784Y119207D01*
X141957Y119034D01*
X142161Y118898D01*
X142387Y118804D01*
X142627Y118756D01*
X142750Y118750D01*
X149099D01*
X149283Y118674D01*
X149424Y118533D01*
X149500Y118349D01*
Y118250D01*
Y113500D01*
X149510Y113402D01*
X149584Y113222D01*
X149722Y113084D01*
X149902Y113010D01*
X150000Y113000D01*
X152849D01*
X153033Y112924D01*
X153174Y112783D01*
X153250Y112599D01*
Y112500D01*
Y104250D01*
Y104200D01*
X153212Y104108D01*
X153142Y104038D01*
X153050Y104000D01*
X152500D01*
X152451Y103995D01*
X152361Y103958D01*
X152292Y103889D01*
X152255Y103799D01*
X152250Y103750D01*
Y102000D01*
X156000D01*
X156049Y102005D01*
X156139Y102042D01*
X156208Y102111D01*
X156245Y102201D01*
X156250Y102250D01*
Y103300D01*
X156288Y103392D01*
X156358Y103462D01*
X156450Y103500D01*
X159550D01*
X159642Y103462D01*
X159712Y103392D01*
X159750Y103300D01*
Y103250D01*
Y81250D01*
Y81178D01*
X159722Y81035D01*
X159666Y80901D01*
X159586Y80781D01*
X159483Y80678D01*
X159363Y80598D01*
X159229Y80542D01*
X159086Y80514D01*
X156115D01*
X156062Y80536D01*
X156022Y80576D01*
X156000Y80629D01*
Y82750D01*
X158000D01*
X158123Y82756D01*
X158363Y82804D01*
X158589Y82898D01*
X158793Y83034D01*
X158966Y83207D01*
X159102Y83411D01*
X159196Y83637D01*
X159244Y83877D01*
X159250Y84000D01*
Y100750D01*
X159239Y100862D01*
X159153Y101068D01*
X158995Y101226D01*
X158789Y101312D01*
X158677Y101323D01*
X153823D01*
X153809Y101322D01*
X153782Y101311D01*
X153762Y101291D01*
X153751Y101264D01*
X153750Y101250D01*
Y101168D01*
X153718Y101008D01*
X153656Y100857D01*
X153565Y100721D01*
X153449Y100605D01*
X153313Y100514D01*
X153162Y100452D01*
X153002Y100420D01*
X136595D01*
X136437Y100486D01*
X136316Y100607D01*
X136250Y100765D01*
Y101050D01*
X136288Y101142D01*
X136358Y101212D01*
X136450Y101250D01*
X151000D01*
X151049Y101255D01*
X151139Y101292D01*
X151208Y101361D01*
X151245Y101451D01*
X151250Y101500D01*
Y103000D01*
X151246Y103074D01*
X151218Y103218D01*
X151161Y103354D01*
X151080Y103476D01*
X150976Y103580D01*
X150854Y103661D01*
X150718Y103718D01*
X150574Y103746D01*
X150500Y103750D01*
X150435D01*
X150314Y103800D01*
X150222Y103892D01*
X150172Y104013D01*
Y104800D01*
X151646D01*
X151679Y104793D01*
X151710Y104781D01*
X151738Y104762D01*
X151750Y104750D01*
X151823Y104823D01*
X151863Y104867D01*
X151929Y104965D01*
X151974Y105075D01*
X151997Y105191D01*
X152000Y105250D01*
Y111750D01*
X152000Y111750D01*
X151954Y111792D01*
X151851Y111860D01*
X151737Y111908D01*
X151615Y111932D01*
X151553Y111935D01*
X149290D01*
X149121Y112104D01*
X149121D01*
X149033Y112192D01*
X148894Y112400D01*
X148799Y112630D01*
X148750Y112875D01*
Y115250D01*
X148750Y115250D01*
X148626Y115363D01*
X148348Y115548D01*
X148038Y115676D01*
X147710Y115742D01*
X147543Y115750D01*
X141539D01*
X141209Y115816D01*
X140898Y115944D01*
X140619Y116131D01*
X140177Y116573D01*
Y116573D01*
X140077Y116702D01*
X140069Y116714D01*
X140023Y116824D01*
X140000Y116941D01*
Y119500D01*
X140000Y119500D01*
X139938Y119556D01*
X139799Y119649D01*
X139644Y119713D01*
X139480Y119746D01*
X139396Y119750D01*
X129250D01*
Y122000D01*
X139697D01*
X140083Y121923D01*
D02*
G37*
G36*
X158176Y100242D02*
X158383Y100177D01*
X158571Y100070D01*
X158734Y99927D01*
X158863Y99753D01*
X158953Y99555D01*
X159000Y99344D01*
X159002Y99235D01*
X159002Y98500D01*
X159002Y98500D01*
X158982Y98423D01*
X158920Y98277D01*
X158835Y98143D01*
X158730Y98025D01*
X158608Y97924D01*
X158471Y97844D01*
X158323Y97787D01*
X158168Y97754D01*
X158089Y97750D01*
X157000Y97750D01*
X157000Y97750D01*
X156853Y97743D01*
X156565Y97685D01*
X156293Y97573D01*
X156048Y97409D01*
X155840Y97202D01*
X155677Y96957D01*
X155565Y96685D01*
X155507Y96397D01*
X155500Y96250D01*
Y79750D01*
Y79651D01*
X155462Y79458D01*
X155386Y79276D01*
X155277Y79113D01*
X155137Y78973D01*
X154974Y78864D01*
X154792Y78788D01*
X154598Y78750D01*
X132700D01*
X132608Y78788D01*
X132538Y78858D01*
X132500Y78950D01*
X132500Y80080D01*
X132500Y80250D01*
X132649Y80300D01*
X132735D01*
X152800D01*
X152839Y80304D01*
X152911Y80334D01*
X152966Y80389D01*
X152996Y80461D01*
X153000Y80500D01*
X153000Y86250D01*
X153000Y86250D01*
X153000Y86250D01*
X152995Y86299D01*
X152958Y86389D01*
X152958Y86389D01*
X152945Y86402D01*
X152889Y86458D01*
X152799Y86495D01*
X152750Y86500D01*
X152676D01*
X152531Y86529D01*
X152395Y86585D01*
X152272Y86667D01*
X152167Y86772D01*
X152085Y86895D01*
X152029Y87031D01*
X152000Y87176D01*
Y92250D01*
X151996Y92324D01*
X151968Y92468D01*
X151911Y92604D01*
X151830Y92726D01*
X151726Y92830D01*
X151604Y92911D01*
X151468Y92968D01*
X151324Y92996D01*
X151250Y93000D01*
X148602D01*
X148312Y93058D01*
X148039Y93171D01*
X147794Y93335D01*
X147585Y93544D01*
X147421Y93789D01*
X147308Y94062D01*
X147250Y94352D01*
Y95348D01*
X147288Y95542D01*
X147364Y95724D01*
X147473Y95887D01*
X147613Y96027D01*
X147776Y96136D01*
X147958Y96212D01*
X148152Y96250D01*
X152000D01*
X152098Y96255D01*
X152290Y96293D01*
X152471Y96368D01*
X152634Y96477D01*
X152773Y96616D01*
X152882Y96779D01*
X152957Y96960D01*
X152995Y97152D01*
X153000Y97250D01*
X153000Y98500D01*
X153000Y98500D01*
X153000Y98500D01*
X152995Y98549D01*
X152958Y98639D01*
X152958Y98639D01*
X152945Y98652D01*
X152889Y98708D01*
X152799Y98745D01*
X152750Y98750D01*
X134750Y98750D01*
Y94500D01*
X134760Y94402D01*
X134834Y94222D01*
X134972Y94084D01*
X135152Y94010D01*
X135250Y94000D01*
X135849D01*
X136033Y93924D01*
X136174Y93783D01*
X136250Y93599D01*
Y91401D01*
X136174Y91217D01*
X136033Y91076D01*
X135849Y91000D01*
X134750D01*
Y92750D01*
X134750D01*
X134750Y92750D01*
X134750Y92750D01*
X134746Y92824D01*
X134718Y92968D01*
X134661Y93104D01*
X134580Y93226D01*
X134476Y93330D01*
X134354Y93411D01*
X134218Y93468D01*
X134074Y93496D01*
X134000Y93500D01*
X133401Y93500D01*
X133217Y93576D01*
X133076Y93717D01*
X133000Y93901D01*
Y94000D01*
Y98750D01*
X126250Y98750D01*
X126151D01*
X125967Y98826D01*
X125826Y98967D01*
X125750Y99151D01*
Y100050D01*
X125788Y100142D01*
X125858Y100212D01*
X125950Y100250D01*
X157852D01*
X157852Y100250D01*
X157852Y100250D01*
X158019Y100257D01*
X158176Y100242D01*
D02*
G37*
G36*
X122487Y95696D02*
X122500Y94750D01*
X122525Y94626D01*
X122476Y94377D01*
X122335Y94166D01*
X122152Y94043D01*
X122000Y94000D01*
Y94000D01*
X118750Y94000D01*
X118630Y94029D01*
X118431Y94175D01*
X118304Y94386D01*
X118289Y94482D01*
X118400Y94611D01*
X119624D01*
X119678Y94576D01*
X119750Y94561D01*
X119822Y94576D01*
X119883Y94617D01*
X119924Y94678D01*
X119939Y94750D01*
X119924Y94822D01*
X119883Y94883D01*
X119833Y94933D01*
X119772Y94974D01*
X119700Y94989D01*
X118326D01*
X118191Y95154D01*
X118193Y95202D01*
X118223Y95333D01*
X118278Y95457D01*
X118356Y95567D01*
X118454Y95660D01*
X118511Y95696D01*
X118511Y95696D01*
X121500Y95696D01*
Y116362D01*
X122487D01*
Y95696D01*
D02*
G37*
G36*
X60892Y89212D02*
X60962Y89142D01*
X61000Y89050D01*
Y87750D01*
X61005Y87701D01*
X61042Y87611D01*
X61111Y87542D01*
X61201Y87505D01*
X61250Y87500D01*
X64106D01*
X64154Y87480D01*
X64190Y87444D01*
X64210Y87396D01*
Y86709D01*
X64053Y86644D01*
X63664Y87034D01*
X63589Y87084D01*
X63500Y87101D01*
X63411Y87084D01*
X63336Y87034D01*
X63286Y86959D01*
X63269Y86870D01*
X63286Y86781D01*
X63336Y86706D01*
X63516Y86527D01*
X63451Y86370D01*
X59804D01*
X59665Y86428D01*
X59558Y86535D01*
X59500Y86674D01*
Y88000D01*
X59490Y88098D01*
X59416Y88278D01*
X59278Y88416D01*
X59098Y88490D01*
X59000Y88500D01*
X57000D01*
X56926Y88496D01*
X56782Y88468D01*
X56646Y88411D01*
X56524Y88330D01*
X56420Y88226D01*
X56339Y88104D01*
X56282Y87968D01*
X56254Y87824D01*
X56250Y87750D01*
Y86322D01*
X56181Y86157D01*
X56055Y86031D01*
X55890Y85962D01*
X54212D01*
X54171Y85958D01*
X54094Y85926D01*
X54036Y85868D01*
X54004Y85791D01*
X54000Y85750D01*
Y85700D01*
X53962Y85608D01*
X53892Y85538D01*
X53800Y85500D01*
X52500D01*
Y86550D01*
X52538Y86642D01*
X52608Y86712D01*
X52700Y86750D01*
X54750D01*
X54799Y86755D01*
X54889Y86792D01*
X54958Y86861D01*
X54995Y86951D01*
X55000Y87000D01*
Y88574D01*
X55029Y88719D01*
X55085Y88855D01*
X55167Y88978D01*
X55272Y89083D01*
X55395Y89165D01*
X55531Y89221D01*
X55676Y89250D01*
X60800D01*
X60892Y89212D01*
D02*
G37*
G36*
X53869Y84000D02*
X53869Y84000D01*
X53869D01*
X54028Y83993D01*
X54232Y83952D01*
X54459Y83858D01*
X54663Y83722D01*
X54750Y83635D01*
X54750Y82435D01*
X53350D01*
X53282Y82428D01*
X53156Y82376D01*
X53059Y82279D01*
X53007Y82153D01*
X53000Y82085D01*
Y79500D01*
X53012Y79380D01*
X53104Y79158D01*
X53273Y78989D01*
X53495Y78897D01*
X53615Y78885D01*
X54359D01*
X54411Y78715D01*
X54386Y78699D01*
X54336Y78624D01*
X54319Y78535D01*
X54336Y78446D01*
X54354Y78420D01*
X54291Y78264D01*
X54279Y78250D01*
X53250Y78250D01*
X53250Y78250D01*
X53176Y78246D01*
X53032Y78218D01*
X52896Y78161D01*
X52774Y78080D01*
X52670Y77976D01*
X52589Y77854D01*
X52532Y77718D01*
X52504Y77574D01*
X52500Y77500D01*
Y67500D01*
X52508Y67340D01*
X52570Y67027D01*
X52692Y66732D01*
X52870Y66466D01*
X53096Y66240D01*
X53362Y66062D01*
X53657Y65940D01*
X53970Y65878D01*
X54130Y65870D01*
X58710D01*
Y64747D01*
X58616Y64519D01*
X58441Y64344D01*
X58213Y64250D01*
X51500D01*
X51373Y64355D01*
X51206Y64516D01*
X51035Y64718D01*
X50885Y64936D01*
X50757Y65167D01*
X50652Y65410D01*
X50571Y65662D01*
X50515Y65921D01*
X50500Y66052D01*
Y84000D01*
X53869D01*
X53869Y84000D01*
D02*
G37*
G36*
X73000Y75250D02*
Y75200D01*
X72962Y75108D01*
X72892Y75038D01*
X72800Y75000D01*
X69800D01*
Y76000D01*
X71500D01*
X71598Y76010D01*
X71778Y76084D01*
X71916Y76222D01*
X71990Y76402D01*
X72000Y76500D01*
Y77200D01*
X73000D01*
Y75250D01*
D02*
G37*
G36*
X69413Y63987D02*
X69470Y63930D01*
X69500Y63857D01*
Y63817D01*
Y62500D01*
X63940D01*
X63830Y62546D01*
X63746Y62630D01*
X63700Y62740D01*
Y62800D01*
Y64017D01*
X69340D01*
X69413Y63987D01*
D02*
G37*
G36*
X136987Y69734D02*
X137064Y69702D01*
X137134Y69655D01*
X137163Y69626D01*
X137163Y69026D01*
Y68971D01*
X137121Y68870D01*
X137043Y68792D01*
X136942Y68750D01*
X134750D01*
X134627Y68744D01*
X134387Y68696D01*
X134161Y68602D01*
X133957Y68466D01*
X133784Y68293D01*
X133648Y68089D01*
X133554Y67863D01*
X133506Y67623D01*
X133500Y67500D01*
Y63000D01*
X132354D01*
X132270Y62996D01*
X132106Y62963D01*
X131951Y62899D01*
X131812Y62806D01*
X131750Y62750D01*
X131750Y60250D01*
X128169D01*
X128020Y60312D01*
X127906Y60426D01*
X127844Y60575D01*
Y60656D01*
Y61300D01*
X129300D01*
X129369Y61303D01*
X129503Y61330D01*
X129630Y61383D01*
X129744Y61459D01*
X129841Y61556D01*
X129917Y61670D01*
X129970Y61797D01*
X129997Y61931D01*
X130000Y62000D01*
Y63682D01*
Y63712D01*
X130023Y63768D01*
X130066Y63811D01*
X130122Y63834D01*
X132084D01*
X132165Y63842D01*
X132315Y63904D01*
X132430Y64019D01*
X132492Y64169D01*
X132500Y64250D01*
Y69250D01*
Y69349D01*
X132576Y69533D01*
X132717Y69674D01*
X132901Y69750D01*
X136905D01*
X136987Y69734D01*
D02*
G37*
G36*
X80685Y56185D02*
X81002Y56185D01*
X81070Y56157D01*
X81122Y56105D01*
X81150Y56037D01*
X81150Y54750D01*
X81150Y54750D01*
X81150Y54711D01*
X81114Y54641D01*
X81050Y54595D01*
X80972Y54585D01*
X80935Y54598D01*
X80935Y54598D01*
X80856Y54582D01*
X80711Y54512D01*
X80598Y54399D01*
X80528Y54254D01*
X80512Y54176D01*
X80512D01*
X80530Y53961D01*
X80547Y53530D01*
X80547Y53098D01*
X80530Y52668D01*
X80512Y52453D01*
X80508Y52356D01*
X80569Y52175D01*
X80708Y52043D01*
X80893Y51991D01*
X80989Y52000D01*
X94550D01*
X94642Y51962D01*
X94712Y51892D01*
X94750Y51800D01*
Y47200D01*
X94712Y47108D01*
X94642Y47038D01*
X94550Y47000D01*
X79498D01*
X79498Y47000D01*
X79439Y47000D01*
X79329Y47045D01*
X79245Y47129D01*
X79200Y47239D01*
X79200Y47298D01*
Y47828D01*
X93300D01*
X93369Y47831D01*
X93503Y47858D01*
X93630Y47911D01*
X93744Y47987D01*
X93841Y48084D01*
X93917Y48198D01*
X93970Y48325D01*
X93997Y48459D01*
X94000Y48528D01*
Y51000D01*
X93995Y51046D01*
X93960Y51131D01*
X93896Y51195D01*
X93811Y51230D01*
X93765Y51235D01*
X79160D01*
X79087Y51265D01*
X79030Y51322D01*
X79000Y51395D01*
Y53750D01*
X79000Y53830D01*
X79025Y53987D01*
X79075Y54138D01*
X79148Y54280D01*
X79243Y54408D01*
X79357Y54520D01*
X79487Y54612D01*
X79630Y54682D01*
X79706Y54706D01*
X79812Y54716D01*
X80008Y54797D01*
X80158Y54948D01*
X80240Y55144D01*
X80250Y55250D01*
X80250Y55750D01*
X80250Y55750D01*
X80279Y55908D01*
X80316Y55996D01*
X80439Y56119D01*
X80598Y56185D01*
X80685Y56185D01*
D02*
G37*
G36*
X70151Y53875D02*
X70146Y53836D01*
X70131Y53799D01*
X70107Y53768D01*
X70076Y53744D01*
X70039Y53729D01*
X70000Y53724D01*
X69961Y53729D01*
X69924Y53744D01*
X69893Y53768D01*
X69869Y53799D01*
X69854Y53836D01*
X69849Y53875D01*
X69850D01*
Y54875D01*
X70150D01*
X70151Y53875D01*
D02*
G37*
G36*
X69651D02*
X69646Y53836D01*
X69631Y53799D01*
X69607Y53768D01*
X69576Y53744D01*
X69539Y53729D01*
X69500Y53724D01*
X69461Y53729D01*
X69424Y53744D01*
X69393Y53768D01*
X69369Y53799D01*
X69354Y53836D01*
X69349Y53875D01*
X69350D01*
Y54875D01*
X69650D01*
X69651Y53875D01*
D02*
G37*
G36*
X69151D02*
X69146Y53836D01*
X69131Y53799D01*
X69107Y53768D01*
X69076Y53744D01*
X69039Y53729D01*
X69000Y53724D01*
X68961Y53729D01*
X68924Y53744D01*
X68893Y53768D01*
X68869Y53799D01*
X68854Y53836D01*
X68849Y53875D01*
X68850D01*
Y54875D01*
X69150D01*
X69151Y53875D01*
D02*
G37*
G36*
X68651D02*
X68646Y53836D01*
X68631Y53799D01*
X68607Y53768D01*
X68576Y53744D01*
X68539Y53729D01*
X68500Y53724D01*
X68461Y53729D01*
X68424Y53744D01*
X68393Y53768D01*
X68369Y53799D01*
X68354Y53836D01*
X68349Y53875D01*
X68350D01*
Y54875D01*
X68650D01*
X68651Y53875D01*
D02*
G37*
G36*
X68151D02*
X68146Y53836D01*
X68131Y53799D01*
X68107Y53768D01*
X68076Y53744D01*
X68039Y53729D01*
X68000Y53724D01*
X67961Y53729D01*
X67924Y53744D01*
X67893Y53768D01*
X67869Y53799D01*
X67854Y53836D01*
X67849Y53875D01*
X67850D01*
Y54875D01*
X68150D01*
X68151Y53875D01*
D02*
G37*
G36*
X67651D02*
X67646Y53836D01*
X67631Y53799D01*
X67607Y53768D01*
X67576Y53744D01*
X67539Y53729D01*
X67500Y53724D01*
X67461Y53729D01*
X67424Y53744D01*
X67393Y53768D01*
X67369Y53799D01*
X67354Y53836D01*
X67349Y53875D01*
X67350D01*
Y54875D01*
X67650D01*
X67651Y53875D01*
D02*
G37*
G36*
X67151D02*
X67146Y53836D01*
X67131Y53799D01*
X67107Y53768D01*
X67076Y53744D01*
X67039Y53729D01*
X67000Y53724D01*
X66961Y53729D01*
X66924Y53744D01*
X66893Y53768D01*
X66869Y53799D01*
X66854Y53836D01*
X66849Y53875D01*
X66850D01*
Y54875D01*
X67150D01*
X67151Y53875D01*
D02*
G37*
G36*
X66651D02*
X66646Y53836D01*
X66631Y53799D01*
X66607Y53768D01*
X66576Y53744D01*
X66539Y53729D01*
X66500Y53724D01*
X66461Y53729D01*
X66424Y53744D01*
X66393Y53768D01*
X66369Y53799D01*
X66354Y53836D01*
X66349Y53875D01*
X66350D01*
Y54875D01*
X66650D01*
X66651Y53875D01*
D02*
G37*
G36*
X66151D02*
X66146Y53836D01*
X66131Y53799D01*
X66107Y53768D01*
X66076Y53744D01*
X66039Y53729D01*
X66000Y53724D01*
X65961Y53729D01*
X65924Y53744D01*
X65893Y53768D01*
X65869Y53799D01*
X65854Y53836D01*
X65849Y53875D01*
X65850D01*
Y54875D01*
X66150D01*
X66151Y53875D01*
D02*
G37*
G36*
X121292Y53462D02*
X121474Y53386D01*
X121637Y53277D01*
X121777Y53137D01*
X121886Y52974D01*
X121962Y52792D01*
X121988Y52658D01*
X122000Y52500D01*
Y52500D01*
X122000Y52500D01*
X122000Y52500D01*
Y43500D01*
X122012Y43255D01*
X122108Y42774D01*
X122295Y42321D01*
X122567Y41914D01*
X122914Y41567D01*
X123321Y41295D01*
X123774Y41108D01*
X124255Y41012D01*
X124500Y41000D01*
X139500D01*
X141000Y42000D01*
X141500Y47500D01*
X143500Y47500D01*
X143599Y47500D01*
X143783Y47424D01*
X143924Y47283D01*
X143977Y47156D01*
X144000Y47001D01*
Y47000D01*
X144000Y47000D01*
X144000Y47000D01*
X144000Y41500D01*
X143918Y41221D01*
X143683Y40690D01*
X143380Y40195D01*
X143016Y39743D01*
X142595Y39342D01*
X142126Y39000D01*
X141616Y38722D01*
X141075Y38513D01*
X140510Y38376D01*
X139933Y38314D01*
X139352Y38328D01*
X138779Y38418D01*
X138500Y38500D01*
Y38500D01*
X138333Y38500D01*
X138332Y38500D01*
X121500Y38500D01*
X121304Y38490D01*
X120919Y38414D01*
X120557Y38264D01*
X120231Y38046D01*
X119954Y37769D01*
X119736Y37443D01*
X119586Y37081D01*
X119510Y36696D01*
X119500Y36500D01*
Y36000D01*
X114500D01*
Y39000D01*
X114500Y39099D01*
X114576Y39283D01*
X114717Y39424D01*
X114901Y39500D01*
X115000Y39500D01*
X115000Y39500D01*
X118500D01*
X118598Y39505D01*
X118790Y39543D01*
X118971Y39618D01*
X119134Y39727D01*
X119273Y39866D01*
X119382Y40029D01*
X119457Y40210D01*
X119495Y40402D01*
X119500Y40500D01*
Y52500D01*
X113195D01*
X113145Y52500D01*
X113053Y52538D01*
X112983Y52608D01*
X112945Y52700D01*
X112945Y52750D01*
Y53353D01*
X113090Y53497D01*
X113097Y53500D01*
X121000Y53500D01*
X121098Y53500D01*
X121292Y53462D01*
D02*
G37*
G36*
X70375Y53650D02*
X71375D01*
Y53350D01*
X70375Y53349D01*
X70336Y53354D01*
X70299Y53369D01*
X70268Y53393D01*
X70244Y53424D01*
X70229Y53461D01*
X70224Y53500D01*
X70229Y53539D01*
X70244Y53576D01*
X70268Y53607D01*
X70299Y53631D01*
X70336Y53646D01*
X70375Y53651D01*
Y53650D01*
D02*
G37*
G36*
X65664Y53646D02*
X65701Y53631D01*
X65732Y53607D01*
X65756Y53576D01*
X65771Y53539D01*
X65776Y53500D01*
X65771Y53461D01*
X65756Y53424D01*
X65732Y53393D01*
X65701Y53369D01*
X65664Y53354D01*
X65625Y53349D01*
Y53350D01*
X64625D01*
Y53650D01*
X65625Y53651D01*
X65664Y53646D01*
D02*
G37*
G36*
X70375Y53150D02*
X71375D01*
Y52850D01*
X70375Y52849D01*
X70336Y52854D01*
X70299Y52869D01*
X70268Y52893D01*
X70244Y52924D01*
X70229Y52961D01*
X70224Y53000D01*
X70229Y53039D01*
X70244Y53076D01*
X70268Y53107D01*
X70299Y53131D01*
X70336Y53146D01*
X70375Y53151D01*
Y53150D01*
D02*
G37*
G36*
X65664Y53146D02*
X65701Y53131D01*
X65732Y53107D01*
X65756Y53076D01*
X65771Y53039D01*
X65776Y53000D01*
X65771Y52961D01*
X65756Y52924D01*
X65732Y52893D01*
X65701Y52869D01*
X65664Y52854D01*
X65625Y52849D01*
Y52850D01*
X64625D01*
Y53150D01*
X65625Y53151D01*
X65664Y53146D01*
D02*
G37*
G36*
X70375Y52650D02*
X71375D01*
Y52350D01*
X70375Y52349D01*
X70336Y52354D01*
X70299Y52369D01*
X70268Y52393D01*
X70244Y52424D01*
X70229Y52461D01*
X70224Y52500D01*
X70229Y52539D01*
X70244Y52576D01*
X70268Y52607D01*
X70299Y52631D01*
X70336Y52646D01*
X70375Y52651D01*
Y52650D01*
D02*
G37*
G36*
X65664Y52646D02*
X65701Y52631D01*
X65732Y52607D01*
X65756Y52576D01*
X65771Y52539D01*
X65776Y52500D01*
X65771Y52461D01*
X65756Y52424D01*
X65732Y52393D01*
X65701Y52369D01*
X65664Y52354D01*
X65625Y52349D01*
Y52350D01*
X64625D01*
Y52650D01*
X65625Y52651D01*
X65664Y52646D01*
D02*
G37*
G36*
X70375Y52150D02*
X71375D01*
Y51850D01*
X70375Y51849D01*
X70336Y51854D01*
X70299Y51869D01*
X70268Y51893D01*
X70244Y51924D01*
X70229Y51961D01*
X70224Y52000D01*
X70229Y52039D01*
X70244Y52076D01*
X70268Y52107D01*
X70299Y52131D01*
X70336Y52146D01*
X70375Y52151D01*
Y52150D01*
D02*
G37*
G36*
X65664Y52146D02*
X65701Y52131D01*
X65732Y52107D01*
X65756Y52076D01*
X65771Y52039D01*
X65776Y52000D01*
X65771Y51961D01*
X65756Y51924D01*
X65732Y51893D01*
X65701Y51869D01*
X65664Y51854D01*
X65625Y51849D01*
Y51850D01*
X64625D01*
Y52150D01*
X65625Y52151D01*
X65664Y52146D01*
D02*
G37*
G36*
X70375Y51650D02*
X71375D01*
Y51350D01*
X70375Y51349D01*
X70336Y51354D01*
X70299Y51369D01*
X70268Y51393D01*
X70244Y51424D01*
X70229Y51461D01*
X70224Y51500D01*
X70229Y51539D01*
X70244Y51576D01*
X70268Y51607D01*
X70299Y51631D01*
X70336Y51646D01*
X70375Y51651D01*
Y51650D01*
D02*
G37*
G36*
X65664Y51646D02*
X65701Y51631D01*
X65732Y51607D01*
X65756Y51576D01*
X65771Y51539D01*
X65776Y51500D01*
X65771Y51461D01*
X65756Y51424D01*
X65732Y51393D01*
X65701Y51369D01*
X65664Y51354D01*
X65625Y51349D01*
Y51350D01*
X64625D01*
Y51650D01*
X65625Y51651D01*
X65664Y51646D01*
D02*
G37*
G36*
X70375Y51150D02*
X71375D01*
Y50850D01*
X70375Y50849D01*
X70336Y50854D01*
X70299Y50869D01*
X70268Y50893D01*
X70244Y50924D01*
X70229Y50961D01*
X70224Y51000D01*
X70229Y51039D01*
X70244Y51076D01*
X70268Y51107D01*
X70299Y51131D01*
X70336Y51146D01*
X70375Y51151D01*
Y51150D01*
D02*
G37*
G36*
X65664Y51146D02*
X65701Y51131D01*
X65732Y51107D01*
X65756Y51076D01*
X65771Y51039D01*
X65776Y51000D01*
X65771Y50961D01*
X65756Y50924D01*
X65732Y50893D01*
X65701Y50869D01*
X65664Y50854D01*
X65625Y50849D01*
Y50850D01*
X64625D01*
Y51150D01*
X65625Y51151D01*
X65664Y51146D01*
D02*
G37*
G36*
X70375Y50650D02*
X71375D01*
Y50350D01*
X70375Y50349D01*
X70336Y50354D01*
X70299Y50369D01*
X70268Y50393D01*
X70244Y50424D01*
X70229Y50461D01*
X70224Y50500D01*
X70229Y50539D01*
X70244Y50576D01*
X70268Y50607D01*
X70299Y50631D01*
X70336Y50646D01*
X70375Y50651D01*
Y50650D01*
D02*
G37*
G36*
X65664Y50646D02*
X65701Y50631D01*
X65732Y50607D01*
X65756Y50576D01*
X65771Y50539D01*
X65776Y50500D01*
X65771Y50461D01*
X65756Y50424D01*
X65732Y50393D01*
X65701Y50369D01*
X65664Y50354D01*
X65625Y50349D01*
Y50350D01*
X64625D01*
Y50650D01*
X65625Y50651D01*
X65664Y50646D01*
D02*
G37*
G36*
X70375Y50150D02*
X71375D01*
Y49850D01*
X70375Y49849D01*
X70336Y49854D01*
X70299Y49869D01*
X70268Y49893D01*
X70244Y49924D01*
X70229Y49961D01*
X70224Y50000D01*
X70229Y50039D01*
X70244Y50076D01*
X70268Y50107D01*
X70299Y50131D01*
X70336Y50146D01*
X70375Y50151D01*
Y50150D01*
D02*
G37*
G36*
X65664Y50146D02*
X65701Y50131D01*
X65732Y50107D01*
X65756Y50076D01*
X65771Y50039D01*
X65776Y50000D01*
X65771Y49961D01*
X65756Y49924D01*
X65732Y49893D01*
X65701Y49869D01*
X65664Y49854D01*
X65625Y49849D01*
Y49850D01*
X64625D01*
Y50150D01*
X65625Y50151D01*
X65664Y50146D01*
D02*
G37*
G36*
X70375Y49650D02*
X71375D01*
Y49350D01*
X70375Y49349D01*
X70336Y49354D01*
X70299Y49369D01*
X70268Y49393D01*
X70244Y49424D01*
X70229Y49461D01*
X70224Y49500D01*
X70229Y49539D01*
X70244Y49576D01*
X70268Y49607D01*
X70299Y49631D01*
X70336Y49646D01*
X70375Y49651D01*
Y49650D01*
D02*
G37*
G36*
X65664Y49646D02*
X65701Y49631D01*
X65732Y49607D01*
X65756Y49576D01*
X65771Y49539D01*
X65776Y49500D01*
X65771Y49461D01*
X65756Y49424D01*
X65732Y49393D01*
X65701Y49369D01*
X65664Y49354D01*
X65625Y49349D01*
Y49350D01*
X64625D01*
Y49650D01*
X65625Y49651D01*
X65664Y49646D01*
D02*
G37*
G36*
X92972Y50891D02*
X93037Y50891D01*
X93158Y50841D01*
X93250Y50749D01*
X93264Y50716D01*
X93300Y50563D01*
Y50563D01*
X93300Y50563D01*
X93300Y50563D01*
Y48412D01*
X93254Y48302D01*
X93170Y48218D01*
X93060Y48172D01*
X79412D01*
X79315Y48212D01*
X79240Y48287D01*
X79200Y48384D01*
Y48760D01*
X79246Y48870D01*
X79330Y48954D01*
X79440Y49000D01*
X79500D01*
X89500Y49000D01*
X89598Y49010D01*
X89778Y49084D01*
X89916Y49222D01*
X89990Y49402D01*
X90000Y49500D01*
X89978Y49600D01*
X89906Y49792D01*
X89798Y49966D01*
X89659Y50115D01*
X89492Y50235D01*
X89306Y50319D01*
X89106Y50366D01*
X88958Y50371D01*
X88902Y50373D01*
X88800Y50361D01*
X88800Y50361D01*
X88800Y50361D01*
X88800Y50361D01*
X79465Y50361D01*
X79412D01*
X79315Y50401D01*
X79240Y50476D01*
X79200Y50573D01*
Y50891D01*
X92972Y50891D01*
D02*
G37*
G36*
X70039Y49271D02*
X70076Y49256D01*
X70107Y49232D01*
X70131Y49201D01*
X70146Y49164D01*
X70151Y49125D01*
X70150D01*
Y48125D01*
X69850D01*
X69849Y49125D01*
X69854Y49164D01*
X69869Y49201D01*
X69893Y49232D01*
X69924Y49256D01*
X69961Y49271D01*
X70000Y49276D01*
X70039Y49271D01*
D02*
G37*
G36*
X69539D02*
X69576Y49256D01*
X69607Y49232D01*
X69631Y49201D01*
X69646Y49164D01*
X69651Y49125D01*
X69650D01*
Y48125D01*
X69350D01*
X69349Y49125D01*
X69354Y49164D01*
X69369Y49201D01*
X69393Y49232D01*
X69424Y49256D01*
X69461Y49271D01*
X69500Y49276D01*
X69539Y49271D01*
D02*
G37*
G36*
X69039D02*
X69076Y49256D01*
X69107Y49232D01*
X69131Y49201D01*
X69146Y49164D01*
X69151Y49125D01*
X69150D01*
Y48125D01*
X68850D01*
X68849Y49125D01*
X68854Y49164D01*
X68869Y49201D01*
X68893Y49232D01*
X68924Y49256D01*
X68961Y49271D01*
X69000Y49276D01*
X69039Y49271D01*
D02*
G37*
G36*
X68539D02*
X68576Y49256D01*
X68607Y49232D01*
X68631Y49201D01*
X68646Y49164D01*
X68651Y49125D01*
X68650D01*
Y48125D01*
X68350D01*
X68349Y49125D01*
X68354Y49164D01*
X68369Y49201D01*
X68393Y49232D01*
X68424Y49256D01*
X68461Y49271D01*
X68500Y49276D01*
X68539Y49271D01*
D02*
G37*
G36*
X68039D02*
X68076Y49256D01*
X68107Y49232D01*
X68131Y49201D01*
X68146Y49164D01*
X68151Y49125D01*
X68150D01*
Y48125D01*
X67850D01*
X67849Y49125D01*
X67854Y49164D01*
X67869Y49201D01*
X67893Y49232D01*
X67924Y49256D01*
X67961Y49271D01*
X68000Y49276D01*
X68039Y49271D01*
D02*
G37*
G36*
X67539D02*
X67576Y49256D01*
X67607Y49232D01*
X67631Y49201D01*
X67646Y49164D01*
X67651Y49125D01*
X67650D01*
Y48125D01*
X67350D01*
X67349Y49125D01*
X67354Y49164D01*
X67369Y49201D01*
X67393Y49232D01*
X67424Y49256D01*
X67461Y49271D01*
X67500Y49276D01*
X67539Y49271D01*
D02*
G37*
G36*
X67039D02*
X67076Y49256D01*
X67107Y49232D01*
X67131Y49201D01*
X67146Y49164D01*
X67151Y49125D01*
X67150D01*
Y48125D01*
X66850D01*
X66849Y49125D01*
X66854Y49164D01*
X66869Y49201D01*
X66893Y49232D01*
X66924Y49256D01*
X66961Y49271D01*
X67000Y49276D01*
X67039Y49271D01*
D02*
G37*
G36*
X66539D02*
X66576Y49256D01*
X66607Y49232D01*
X66631Y49201D01*
X66646Y49164D01*
X66651Y49125D01*
X66650D01*
Y48125D01*
X66350D01*
X66349Y49125D01*
X66354Y49164D01*
X66369Y49201D01*
X66393Y49232D01*
X66424Y49256D01*
X66461Y49271D01*
X66500Y49276D01*
X66539Y49271D01*
D02*
G37*
G36*
X66039D02*
X66076Y49256D01*
X66107Y49232D01*
X66131Y49201D01*
X66146Y49164D01*
X66151Y49125D01*
X66150D01*
Y48125D01*
X65850D01*
X65849Y49125D01*
X65854Y49164D01*
X65869Y49201D01*
X65893Y49232D01*
X65924Y49256D01*
X65961Y49271D01*
X66000Y49276D01*
X66039Y49271D01*
D02*
G37*
G36*
X117902Y52152D02*
Y51622D01*
X116622Y51622D01*
X116527Y51588D01*
X116367Y51469D01*
X116264Y51297D01*
X116245Y51168D01*
X116235Y51099D01*
X116250Y51000D01*
X116250Y51000D01*
X116250Y44800D01*
X116240Y44711D01*
X116186Y44541D01*
X116100Y44385D01*
X115985Y44249D01*
X115846Y44137D01*
X115688Y44055D01*
X115516Y44005D01*
X115339Y43990D01*
X115250Y44000D01*
X112000D01*
Y42750D01*
X111750Y42500D01*
X111443D01*
X111337Y42544D01*
X111256Y42625D01*
X111212Y42731D01*
Y42788D01*
Y44160D01*
X111212Y44160D01*
X111212Y44200D01*
Y44800D01*
X115050D01*
X115089Y44804D01*
X115161Y44834D01*
X115216Y44889D01*
X115246Y44961D01*
X115250Y45000D01*
X115250Y45000D01*
Y51500D01*
X115245Y51549D01*
X115208Y51639D01*
X115139Y51708D01*
X115049Y51745D01*
X115000Y51750D01*
X114495D01*
Y51775D01*
X113165D01*
X113097Y51803D01*
X112998Y51902D01*
X112945Y52030D01*
Y52203D01*
X113067Y52321D01*
X117902Y52152D01*
D02*
G37*
G36*
X100400Y37750D02*
X89500D01*
Y37000D01*
Y36902D01*
X89462Y36708D01*
X89386Y36526D01*
X89277Y36363D01*
X89137Y36223D01*
X88974Y36114D01*
X88792Y36038D01*
X88598Y36000D01*
X86401D01*
X86217Y36076D01*
X86076Y36217D01*
X86000Y36401D01*
Y36500D01*
Y40500D01*
X89500D01*
Y45746D01*
X91500D01*
Y40250D01*
X98400D01*
Y43250D01*
X96500D01*
X96300Y43450D01*
Y45750D01*
X100400D01*
Y37750D01*
D02*
G37*
G36*
X58000Y48500D02*
X54500D01*
Y44552D01*
X54500Y44552D01*
X54500Y44302D01*
X54402Y43811D01*
X54211Y43349D01*
X53933Y42933D01*
X53756Y42756D01*
X52500Y41500D01*
Y36270D01*
X50000D01*
Y39948D01*
X50000Y40198D01*
X50098Y40689D01*
X50289Y41151D01*
X50567Y41567D01*
X50744Y41744D01*
X52256Y43256D01*
X52256Y43256D01*
X52256Y43256D01*
X52423Y43441D01*
X52700Y43855D01*
X52891Y44315D01*
X52988Y44803D01*
X53000Y45052D01*
X53000Y48500D01*
Y50500D01*
X58000D01*
Y48500D01*
D02*
G37*
G36*
X80500Y42000D02*
X74000D01*
Y37328D01*
X80500D01*
Y36000D01*
X71395D01*
Y42891D01*
X80500D01*
Y42000D01*
D02*
G37*
G36*
X67790Y43765D02*
X67821Y43752D01*
Y43200D01*
X66200D01*
X66000Y43000D01*
Y38000D01*
X67500D01*
Y36000D01*
X63500D01*
Y38000D01*
X64500D01*
X65000Y38500D01*
Y43000D01*
X62935D01*
X62700Y43235D01*
Y43765D01*
X67790D01*
D02*
G37*
%LPC*%
G36*
X51420Y38191D02*
X51331Y38174D01*
X51256Y38124D01*
X51206Y38049D01*
X51189Y37960D01*
Y37380D01*
X51206Y37291D01*
X51256Y37216D01*
X51331Y37166D01*
X51420Y37149D01*
X51509Y37166D01*
X51584Y37216D01*
X51634Y37291D01*
X51651Y37380D01*
Y37960D01*
X51634Y38049D01*
X51584Y38124D01*
X51509Y38174D01*
X51420Y38191D01*
D02*
G37*
%LPD*%
D10*
X71850Y85000D02*
G03*
X72000Y85150I0J150D01*
G01*
X95615Y58500D02*
G03*
X94500Y57385I0J-1115D01*
G01*
X79700Y59700D02*
G03*
X79500Y59500I0J-200D01*
G01*
X56201Y108428D02*
G03*
X56201Y108542I-1501J57D01*
G01*
X84832Y54666D02*
X85000D01*
X84197Y55300D02*
X84832Y54666D01*
X83000Y55300D02*
X84197D01*
X127063Y108732D02*
Y114070D01*
X131985Y84000D02*
X136057D01*
X131985Y84000D02*
X131985Y84000D01*
X136057D02*
X141957Y89900D01*
X131985Y80141D02*
X132126Y80000D01*
X131985Y80141D02*
Y84000D01*
X131985D02*
Y84641D01*
X65250Y45000D02*
X66700D01*
X67250Y44450D01*
X63626Y45000D02*
X65250D01*
X125778Y71180D02*
X129500Y70500D01*
X148000Y72000D02*
X149000Y72750D01*
X103047Y69453D02*
X103047Y69453D01*
X101000Y70500D02*
X102047Y69453D01*
X103047D01*
X123146Y61000D02*
Y61055D01*
Y60945D02*
Y61000D01*
X103047Y69453D02*
X121873D01*
X102250Y76750D02*
X103500Y75500D01*
X121870D01*
X123000Y76630D01*
X117524Y76073D02*
X117657Y76206D01*
X106177Y76073D02*
X117524D01*
X83080Y80800D02*
X101450D01*
X106177Y76073D01*
X125870Y74500D02*
X128000Y76630D01*
X99750Y76250D02*
X101500Y74500D01*
X125870D01*
X119376Y78127D02*
X122627D01*
X117657Y76408D02*
X119376Y78127D01*
X117657Y76206D02*
Y76408D01*
X63500Y86870D02*
X65370Y85000D01*
X70500D01*
X71850D01*
X55500Y82581D02*
Y85293D01*
X68500Y47250D02*
Y48700D01*
X63450Y51440D02*
X63510Y51500D01*
X65200D01*
X65500Y47250D02*
Y48200D01*
X66000Y48700D01*
X65250Y55050D02*
Y55250D01*
Y55050D02*
X66000Y54300D01*
X69500Y54875D02*
X69875Y55250D01*
X71500D01*
X69500Y54300D02*
Y54875D01*
X71500Y55250D02*
X72250Y54500D01*
Y53750D02*
Y54500D01*
X70800Y53500D02*
X72250Y53750D01*
X70800Y51500D02*
X72250D01*
X135500Y90563D02*
X135750Y88000D01*
X133975Y87955D02*
X135750Y88000D01*
X132000Y91437D02*
X135500Y90563D01*
X137937Y106219D02*
Y106375D01*
X132586Y105973D02*
X137691D01*
X137937Y106375D02*
Y106750D01*
X137691Y105973D02*
X137937Y106219D01*
X137994Y106565D02*
X144500D01*
X132403Y106156D02*
X132586Y105973D01*
X95615Y58500D02*
X96500D01*
X94500Y56615D02*
Y57385D01*
X79700Y59700D02*
X81000D01*
X78250Y93000D02*
X78850Y93600D01*
X79100D01*
X77500Y93000D02*
X78250D01*
X78726Y95976D02*
X78926D01*
X77500Y94750D02*
X78726Y95976D01*
X67437Y95500D02*
X68000D01*
X67429Y95508D02*
X67437Y95500D01*
X67060Y95631D02*
X67183Y95508D01*
X67429D01*
X59500Y83000D02*
Y84750D01*
X67750Y88000D02*
X68000Y87000D01*
X54754Y81835D02*
X55500Y82581D01*
X62500Y64000D02*
X63126Y64626D01*
X64000D01*
X62500Y62126D02*
Y64000D01*
Y62126D02*
X67500Y57126D01*
X61095Y67531D02*
X64000Y64626D01*
X61095Y67531D02*
Y69845D01*
X69000Y64626D02*
X69874D01*
X70500Y57975D02*
Y64000D01*
X69874Y64626D02*
X70500Y64000D01*
X68000Y55475D02*
X70500Y57975D01*
X68000Y54300D02*
Y55475D01*
X51420Y37380D02*
Y37960D01*
X133700Y102157D02*
Y104500D01*
X132500Y100957D02*
X133700Y102157D01*
Y104500D02*
X149563D01*
X63500Y83000D02*
Y85000D01*
X67100Y78057D02*
X67343Y78300D01*
X72500D01*
X68650Y75500D02*
Y75593D01*
X67100Y77143D02*
X68650Y75593D01*
X56411Y106011D02*
X57400Y107000D01*
X55400Y118000D02*
X57400Y116000D01*
X54540Y118000D02*
X55400D01*
X57400Y107000D02*
Y116000D01*
X56201Y107071D02*
Y108428D01*
X53500Y112512D02*
Y119000D01*
Y112512D02*
X56200Y109812D01*
X56200Y109573D02*
X56200Y109573D01*
X55480Y106350D02*
X56201Y107071D01*
X56200Y109573D02*
X56201Y108542D01*
X56200Y109573D02*
Y109573D01*
X56200Y109573D02*
Y109812D01*
X53500Y119000D02*
X54540Y120040D01*
X49500Y105200D02*
X54210Y100490D01*
X49500Y105200D02*
Y107100D01*
X54540Y120040D02*
Y120540D01*
X49500Y115500D02*
X52000Y118000D01*
X49500Y107100D02*
Y115500D01*
X43827Y106084D02*
Y106828D01*
X54991Y94920D02*
Y94920D01*
Y94920D02*
X55480Y94920D01*
X43827Y106084D02*
X54991Y94920D01*
X43827Y116327D02*
X48040Y120540D01*
X43827Y106828D02*
Y116327D01*
X48040Y120540D02*
X52000D01*
X54210Y97460D02*
Y100490D01*
X63000Y44374D02*
X63626Y45000D01*
X122762Y70664D02*
X123279Y71180D01*
X125778D01*
X122762Y70042D02*
Y70664D01*
X144150Y71350D02*
X146000D01*
X144000Y71500D02*
X144150Y71350D01*
X59205Y78535D02*
X59500Y78830D01*
X54550Y78535D02*
X59205D01*
X54210Y103810D02*
X55819Y105419D01*
X55866D01*
X56411Y105964D01*
Y106011D01*
X60289Y120631D02*
X65750D01*
X72000Y86850D02*
X72150Y87000D01*
X75086D01*
X59346Y85895D02*
X60566D01*
X58758Y85307D02*
X59346Y85895D01*
X58758Y85248D02*
Y85307D01*
X58560Y85050D02*
X58758Y85248D01*
X60566Y85895D02*
X61461Y85000D01*
X58560Y84750D02*
Y85050D01*
X54550Y81835D02*
X54754D01*
X61461Y85000D02*
X63500D01*
X58560Y85050D02*
Y87250D01*
X59040Y37960D02*
Y40500D01*
X54210Y56500D02*
X56830D01*
X128000Y78500D02*
X128000Y78500D01*
X123000Y78500D02*
X128000D01*
X122627Y78127D02*
X123000Y78500D01*
X122173Y69453D02*
X122762Y70042D01*
X121873Y69453D02*
X122173D01*
X123166Y64583D02*
X124956Y66373D01*
Y70103D01*
X125119Y70266D01*
X123873Y70103D02*
X124956D01*
X121873Y62328D02*
X123146Y61055D01*
X121873Y62328D02*
Y69453D01*
X125119Y70266D02*
X125778D01*
X123166Y64548D02*
Y64583D01*
X130824Y64651D02*
X130927Y64754D01*
X124143Y64651D02*
X130824D01*
X124040Y64548D02*
X124143Y64651D01*
X124040Y64548D02*
X124050Y64538D01*
Y61010D02*
Y64538D01*
Y61010D02*
X124060Y61000D01*
X123146Y60945D02*
X123618Y60473D01*
X125121D01*
X125648Y61000D01*
X127235D01*
X127556Y65536D02*
X129171D01*
X129660Y66024D01*
X130927D01*
X127556Y68036D02*
X129760D01*
X130502Y67294D01*
X130927D01*
X137772Y68264D02*
Y69326D01*
X136802Y67294D02*
X137772Y68264D01*
X136377Y67294D02*
X136802D01*
X137500Y66596D01*
Y58600D02*
Y66596D01*
X136540Y56125D02*
Y56400D01*
X131874Y51459D02*
X136540Y56125D01*
X131874Y44688D02*
Y51459D01*
X107876Y47222D02*
Y51377D01*
Y47222D02*
X110543Y44555D01*
Y44500D02*
Y44555D01*
Y44500D02*
X110617Y44426D01*
Y37211D02*
Y44426D01*
X107522Y52022D02*
X108000Y52500D01*
X107876Y51377D02*
X108501Y52002D01*
X108077Y37211D02*
Y44258D01*
X107522Y44813D02*
Y52022D01*
Y44813D02*
X108077Y44258D01*
X108501Y52002D02*
X109122D01*
X108000Y52503D02*
X108149Y52652D01*
X109122D01*
X108000Y52500D02*
Y52503D01*
X109122Y52652D02*
X109220Y52750D01*
X109122Y52002D02*
X109220Y52100D01*
X93350Y44600D02*
Y45500D01*
X92873Y45977D02*
X93350Y45500D01*
X89202Y45977D02*
X92873D01*
X86935Y43710D02*
X89202Y45977D01*
X86935Y43500D02*
Y43710D01*
X85000Y43645D02*
X85065Y43710D01*
X85000Y39000D02*
Y43645D01*
X67500Y54300D02*
Y57126D01*
X71250Y66876D02*
Y70500D01*
X69173Y64799D02*
X71250Y66876D01*
X61095Y69845D02*
X61750Y70500D01*
X69173Y64764D02*
Y64799D01*
X69035Y64626D02*
X69173Y64764D01*
X69000Y64626D02*
X69035D01*
X58000Y63500D02*
X58210D01*
X66500Y55210D01*
Y54300D02*
Y55210D01*
X141957Y89900D02*
X146920D01*
X131975Y95334D02*
X132065Y95423D01*
X132012Y87967D02*
X132025Y87955D01*
X131937Y95372D02*
X132065Y95500D01*
X132012Y87967D02*
Y90550D01*
X131473Y94698D02*
X132065Y95290D01*
Y95423D01*
X131473Y91055D02*
Y94698D01*
Y91055D02*
X131965Y90563D01*
X132000D01*
X132012Y90550D01*
X131965Y91437D02*
X132000D01*
X132065Y95423D02*
Y95500D01*
X128955Y95050D02*
X131692D01*
X127048Y100685D02*
Y104865D01*
X127027Y104886D02*
X127048Y104865D01*
X137970Y109204D02*
X143521D01*
X144290Y108435D01*
X144500D01*
X149936Y110565D02*
X150000D01*
X149563Y110192D02*
X149936Y110565D01*
X149563Y104500D02*
Y110192D01*
X142125Y113425D02*
X143500D01*
X140700Y112000D02*
X142125Y113425D01*
X132500Y112000D02*
X140700D01*
X132500Y108793D02*
Y112000D01*
X132403Y108696D02*
X132500Y108793D01*
X132840Y104886D02*
X133038Y104688D01*
Y104649D02*
X133187Y104500D01*
X133700D01*
X132403Y104886D02*
X132840D01*
X133038Y104649D02*
Y104688D01*
X150333Y110301D02*
X150543D01*
X127937Y114035D02*
Y114070D01*
Y114035D02*
X128102Y113870D01*
X132500D01*
X127027Y108696D02*
X127063Y108732D01*
D16*
X93500Y56615D02*
D03*
X94000D02*
D03*
X95000D02*
D03*
X95500D02*
D03*
Y57385D02*
D03*
X95000D02*
D03*
X94000D02*
D03*
X93500D02*
D03*
X69000Y86230D02*
D03*
X68500D02*
D03*
X67500D02*
D03*
X67000D02*
D03*
Y87000D02*
D03*
X67500D02*
D03*
X68500D02*
D03*
X69000D02*
D03*
D17*
X94500Y56615D02*
D03*
Y57385D02*
D03*
X68000Y86230D02*
D03*
Y87000D02*
D03*
D18*
X67060Y94631D02*
D03*
Y95131D02*
D03*
Y96131D02*
D03*
Y96631D02*
D03*
X66290D02*
D03*
Y96131D02*
D03*
Y95131D02*
D03*
Y94631D02*
D03*
D19*
X67060Y95631D02*
D03*
X66290D02*
D03*
D20*
X79500Y51500D02*
D03*
Y50626D02*
D03*
Y48437D02*
D03*
Y47563D02*
D03*
X93000Y48437D02*
D03*
Y47563D02*
D03*
Y50563D02*
D03*
Y51437D02*
D03*
X88500Y50626D02*
D03*
Y51500D02*
D03*
Y48437D02*
D03*
Y47563D02*
D03*
X84000D02*
D03*
Y48437D02*
D03*
Y50626D02*
D03*
Y51500D02*
D03*
X80000Y42626D02*
D03*
Y43500D02*
D03*
X76500Y37063D02*
D03*
Y37937D02*
D03*
X80000Y37063D02*
D03*
Y37937D02*
D03*
X63000Y43500D02*
D03*
Y44374D02*
D03*
X76500Y43437D02*
D03*
Y42563D02*
D03*
X127048Y99811D02*
D03*
Y100685D02*
D03*
X151881Y99811D02*
D03*
Y100685D02*
D03*
X146914Y99811D02*
D03*
Y100685D02*
D03*
X136981Y99811D02*
D03*
Y100685D02*
D03*
X141948Y99811D02*
D03*
Y100685D02*
D03*
X132000Y90563D02*
D03*
Y91437D02*
D03*
X135500Y90563D02*
D03*
Y91437D02*
D03*
X117602Y52761D02*
D03*
Y51887D02*
D03*
X69000Y64626D02*
D03*
Y63752D02*
D03*
X64000Y64626D02*
D03*
Y63752D02*
D03*
D21*
X123096Y116062D02*
D03*
X122222D02*
D03*
X60474Y111000D02*
D03*
X59600D02*
D03*
X137937Y106750D02*
D03*
X137063D02*
D03*
X123096Y107426D02*
D03*
X122222D02*
D03*
X137096Y109204D02*
D03*
X137970D02*
D03*
X122222Y112125D02*
D03*
X123096D02*
D03*
X132126Y80000D02*
D03*
X133000D02*
D03*
X122222Y95996D02*
D03*
X123096D02*
D03*
X127937Y114070D02*
D03*
X127063D02*
D03*
X122222Y99298D02*
D03*
X123096D02*
D03*
Y103235D02*
D03*
X122222D02*
D03*
X150437Y104500D02*
D03*
X149563D02*
D03*
X136898Y69326D02*
D03*
X137772D02*
D03*
X123166Y64548D02*
D03*
X124040D02*
D03*
X128109Y61000D02*
D03*
X127235D02*
D03*
D22*
X117080Y76400D02*
D03*
X114000D02*
D03*
X117080Y76800D02*
D03*
X114000D02*
D03*
X117080Y77200D02*
D03*
X114000D02*
D03*
X117080Y77600D02*
D03*
X114000D02*
D03*
X117080Y78000D02*
D03*
X114000D02*
D03*
X117080Y78400D02*
D03*
X114000D02*
D03*
X117080Y78800D02*
D03*
X114000D02*
D03*
X117080Y79200D02*
D03*
X114000D02*
D03*
X117080Y79600D02*
D03*
X114000D02*
D03*
X117080Y80000D02*
D03*
X114000D02*
D03*
X117080Y80400D02*
D03*
X114000D02*
D03*
X117080Y80800D02*
D03*
X114000D02*
D03*
X117080Y81200D02*
D03*
X114000D02*
D03*
X117080Y81600D02*
D03*
X114000D02*
D03*
X117080Y82000D02*
D03*
X114000D02*
D03*
X117080Y82400D02*
D03*
X114000D02*
D03*
X117080Y82800D02*
D03*
X114000D02*
D03*
X117080Y83200D02*
D03*
X114000D02*
D03*
X117080Y83600D02*
D03*
X114000D02*
D03*
X117080Y84000D02*
D03*
X114000D02*
D03*
X117080Y84400D02*
D03*
X114000D02*
D03*
X117080Y84800D02*
D03*
X114000D02*
D03*
X117080Y85200D02*
D03*
X114000D02*
D03*
X117080Y85600D02*
D03*
X114000D02*
D03*
X117080Y86000D02*
D03*
X114000D02*
D03*
X117080Y86400D02*
D03*
X114000D02*
D03*
X117080Y86800D02*
D03*
X114000D02*
D03*
X117080Y87200D02*
D03*
X114000D02*
D03*
X117080Y87600D02*
D03*
X114000D02*
D03*
X117080Y88000D02*
D03*
X114000D02*
D03*
X117080Y88400D02*
D03*
X114000D02*
D03*
X117080Y88800D02*
D03*
X114000D02*
D03*
X117080Y89200D02*
D03*
X114000D02*
D03*
X117080Y89600D02*
D03*
X114000D02*
D03*
X117080Y90000D02*
D03*
X114000D02*
D03*
X117080Y90400D02*
D03*
X114000D02*
D03*
X117080Y90800D02*
D03*
X114000D02*
D03*
X117080Y91200D02*
D03*
X114000D02*
D03*
X117080Y91600D02*
D03*
X114000D02*
D03*
X117080Y92000D02*
D03*
X114000D02*
D03*
X117080Y92400D02*
D03*
X114000D02*
D03*
X117080Y92800D02*
D03*
X114000D02*
D03*
X117080Y93200D02*
D03*
X114000D02*
D03*
X117080Y93600D02*
D03*
X114000D02*
D03*
X117080Y94000D02*
D03*
X114000D02*
D03*
X117080Y94400D02*
D03*
X114000D02*
D03*
X117080Y94800D02*
D03*
X114000D02*
D03*
X117080Y95200D02*
D03*
X114000D02*
D03*
X117080Y95600D02*
D03*
X114000D02*
D03*
X117080Y96000D02*
D03*
X114000D02*
D03*
X83080Y76400D02*
D03*
X80000D02*
D03*
X83080Y76800D02*
D03*
X80000D02*
D03*
X83080Y77200D02*
D03*
X80000D02*
D03*
X83080Y77600D02*
D03*
X80000D02*
D03*
X83080Y78000D02*
D03*
X80000D02*
D03*
X83080Y78400D02*
D03*
X80000D02*
D03*
X83080Y78800D02*
D03*
X80000D02*
D03*
X83080Y79200D02*
D03*
X80000D02*
D03*
X83080Y79600D02*
D03*
X80000D02*
D03*
X83080Y80000D02*
D03*
X80000D02*
D03*
X83080Y80400D02*
D03*
X80000D02*
D03*
X83080Y80800D02*
D03*
X80000D02*
D03*
X83080Y81200D02*
D03*
X80000D02*
D03*
X83080Y81600D02*
D03*
X80000D02*
D03*
X83080Y82000D02*
D03*
X80000D02*
D03*
X83080Y82400D02*
D03*
X80000D02*
D03*
X83080Y82800D02*
D03*
X80000D02*
D03*
X83080Y83200D02*
D03*
X80000D02*
D03*
X83080Y83600D02*
D03*
X80000D02*
D03*
X83080Y84000D02*
D03*
X80000D02*
D03*
X83080Y84400D02*
D03*
X80000D02*
D03*
X83080Y84800D02*
D03*
X80000D02*
D03*
X83080Y85200D02*
D03*
X80000D02*
D03*
X83080Y85600D02*
D03*
X80000D02*
D03*
X83080Y86000D02*
D03*
X80000D02*
D03*
X83080Y86400D02*
D03*
X80000D02*
D03*
X83080Y86800D02*
D03*
X80000D02*
D03*
X83080Y87200D02*
D03*
X80000D02*
D03*
X83080Y87600D02*
D03*
X80000D02*
D03*
X83080Y88000D02*
D03*
X80000D02*
D03*
X83080Y88400D02*
D03*
X80000D02*
D03*
X83080Y88800D02*
D03*
X80000D02*
D03*
X83080Y89200D02*
D03*
X80000D02*
D03*
X83080Y89600D02*
D03*
X80000D02*
D03*
X83080Y90000D02*
D03*
X80000D02*
D03*
X83080Y90400D02*
D03*
X80000D02*
D03*
X83080Y90800D02*
D03*
X80000D02*
D03*
X83080Y91200D02*
D03*
X80000D02*
D03*
X83080Y91600D02*
D03*
X80000D02*
D03*
X83080Y92000D02*
D03*
X80000D02*
D03*
X83080Y92400D02*
D03*
X80000D02*
D03*
X83080Y92800D02*
D03*
X80000D02*
D03*
X83080Y93200D02*
D03*
X80000D02*
D03*
X83080Y93600D02*
D03*
X80000D02*
D03*
X83080Y94000D02*
D03*
X80000D02*
D03*
X83080Y94400D02*
D03*
X80000D02*
D03*
X83080Y94800D02*
D03*
X80000D02*
D03*
X83080Y95200D02*
D03*
X80000D02*
D03*
X83080Y95600D02*
D03*
X80000D02*
D03*
X83080Y96000D02*
D03*
X80000D02*
D03*
D23*
X120889Y44688D02*
D03*
X142859D02*
D03*
D24*
X44450Y83035D02*
D03*
Y67535D02*
D03*
D25*
X54050Y68435D02*
D03*
D26*
X54550Y81835D02*
D03*
Y80735D02*
D03*
Y79635D02*
D03*
Y78535D02*
D03*
Y77435D02*
D03*
Y76335D02*
D03*
Y75235D02*
D03*
Y74135D02*
D03*
Y73035D02*
D03*
D27*
X54050Y83035D02*
D03*
D28*
X47798Y114427D02*
D03*
X45928D02*
D03*
X47065Y88500D02*
D03*
X48935D02*
D03*
X67000Y37000D02*
D03*
X68870D02*
D03*
X86870Y39000D02*
D03*
X85000D02*
D03*
X132065Y95500D02*
D03*
X133935D02*
D03*
X86935Y43500D02*
D03*
X85065D02*
D03*
D29*
X124060Y61000D02*
D03*
X123146D02*
D03*
X111457Y44500D02*
D03*
X110543D02*
D03*
X76000Y87000D02*
D03*
X75086D02*
D03*
D30*
X81000Y59700D02*
D03*
X81500D02*
D03*
X82000D02*
D03*
X82500D02*
D03*
X83000D02*
D03*
Y55300D02*
D03*
X82500D02*
D03*
X82000D02*
D03*
X81500D02*
D03*
X81000D02*
D03*
D31*
X72500Y42040D02*
D03*
Y44960D02*
D03*
X157909Y99298D02*
D03*
Y102218D02*
D03*
D32*
X67250Y44450D02*
D03*
Y43500D02*
D03*
Y42550D02*
D03*
X69750D02*
D03*
Y43500D02*
D03*
Y44450D02*
D03*
D33*
X74500Y77000D02*
D03*
Y77650D02*
D03*
Y78300D02*
D03*
X72500D02*
D03*
Y77000D02*
D03*
X148000Y72000D02*
D03*
Y70700D02*
D03*
X146000D02*
D03*
Y71350D02*
D03*
Y72000D02*
D03*
X123873Y69453D02*
D03*
Y70103D02*
D03*
Y70753D02*
D03*
X121873D02*
D03*
Y69453D02*
D03*
D34*
X67100Y77143D02*
D03*
Y78057D02*
D03*
X132500Y99791D02*
D03*
Y100705D02*
D03*
X125778Y71180D02*
D03*
Y70266D02*
D03*
X55500Y85293D02*
D03*
Y86207D02*
D03*
D35*
X133975Y87955D02*
D03*
X133325D02*
D03*
X132675D02*
D03*
X132025D02*
D03*
D36*
Y84875D02*
D03*
X132675D02*
D03*
X133325D02*
D03*
X133975D02*
D03*
D37*
X133000Y86000D02*
D03*
D38*
X61750Y70500D02*
D03*
X71250D02*
D03*
D39*
X144500Y106565D02*
D03*
Y108435D02*
D03*
X58000Y63500D02*
D03*
Y65370D02*
D03*
X132500Y112000D02*
D03*
Y113870D02*
D03*
X150000Y112435D02*
D03*
Y110565D02*
D03*
X123000Y78500D02*
D03*
Y76630D02*
D03*
X128000Y78500D02*
D03*
Y76630D02*
D03*
X63500Y85000D02*
D03*
Y86870D02*
D03*
D40*
X109220Y50800D02*
D03*
Y51450D02*
D03*
Y52100D02*
D03*
Y52750D02*
D03*
X113670D02*
D03*
Y52100D02*
D03*
Y51450D02*
D03*
Y50800D02*
D03*
D41*
X137500Y58600D02*
D03*
X138460Y56400D02*
D03*
X136540D02*
D03*
D42*
X68000Y51500D02*
D03*
D43*
X66000Y54300D02*
D03*
X66500D02*
D03*
X67000D02*
D03*
X67500D02*
D03*
X68000D02*
D03*
X68500D02*
D03*
X69000D02*
D03*
X69500D02*
D03*
X70000D02*
D03*
X70800Y53500D02*
D03*
Y53000D02*
D03*
Y52500D02*
D03*
Y52000D02*
D03*
Y51500D02*
D03*
Y51000D02*
D03*
Y50500D02*
D03*
Y50000D02*
D03*
Y49500D02*
D03*
X70000Y48700D02*
D03*
X69500D02*
D03*
X69000D02*
D03*
X68500D02*
D03*
X68000D02*
D03*
X67500D02*
D03*
X67000D02*
D03*
X66500D02*
D03*
X66000D02*
D03*
X65200Y49500D02*
D03*
Y50000D02*
D03*
Y50500D02*
D03*
Y51000D02*
D03*
Y51500D02*
D03*
Y52000D02*
D03*
Y52500D02*
D03*
Y53000D02*
D03*
Y53500D02*
D03*
D44*
X96550Y44600D02*
D03*
X95750D02*
D03*
X94950D02*
D03*
X94150D02*
D03*
X93350D02*
D03*
D45*
X99400Y44500D02*
D03*
X90500D02*
D03*
X99400Y39000D02*
D03*
X90500D02*
D03*
D46*
X127556Y65536D02*
D03*
Y68036D02*
D03*
D47*
X129715Y106791D02*
D03*
D48*
X132403Y108696D02*
D03*
Y107426D02*
D03*
Y106156D02*
D03*
Y104886D02*
D03*
X127027D02*
D03*
Y106156D02*
D03*
Y107426D02*
D03*
Y108696D02*
D03*
D49*
X128000Y92950D02*
D03*
X127045Y95050D02*
D03*
X128955D02*
D03*
D50*
X143500Y117575D02*
D03*
Y113425D02*
D03*
D51*
X72000Y86850D02*
D03*
Y85150D02*
D03*
D52*
X68650Y75500D02*
D03*
X70350D02*
D03*
D53*
X59500Y78830D02*
D03*
Y77170D02*
D03*
D54*
X58560Y84750D02*
D03*
X59500D02*
D03*
X60440D02*
D03*
Y87250D02*
D03*
X58560D02*
D03*
D55*
X130927Y67294D02*
D03*
Y66024D02*
D03*
Y64754D02*
D03*
Y63484D02*
D03*
X136377D02*
D03*
Y64754D02*
D03*
Y66024D02*
D03*
Y67294D02*
D03*
D118*
X140500Y56250D02*
G03*
X140138Y56400I-362J-362D01*
G01*
X82250Y79500D02*
G03*
X82550Y79200I300J0D01*
G01*
X83545Y78800D02*
G03*
X84045Y79107I-0J561D01*
G01*
X55792Y39101D02*
G03*
X53960Y37960I1536J-4509D01*
G01*
X78926Y95976D02*
X78950Y96000D01*
X80000D01*
X81053Y88274D02*
X81648Y88869D01*
X81770Y89495D02*
Y89755D01*
X81157Y89263D02*
Y90205D01*
X81303Y88992D02*
Y89028D01*
X80427Y88115D02*
X81303Y88992D01*
X80427Y88915D02*
X80887Y89375D01*
Y89687D01*
X80927Y89015D02*
Y89033D01*
X81157Y89263D01*
X81303Y89028D02*
X81770Y89495D01*
X81648Y88869D02*
X81688D01*
X80326Y88815D02*
X80427Y88915D01*
X80000Y88800D02*
X80015Y88815D01*
X80326D01*
X80887Y89687D02*
Y90439D01*
X81468Y94500D02*
X82545Y93423D01*
X81250Y94500D02*
X81468D01*
X81544Y93500D02*
X82244Y92800D01*
X81250Y93500D02*
X81544D01*
X83080Y80000D02*
X85946D01*
X98915Y67031D01*
X146000Y70500D02*
Y70700D01*
Y70500D02*
X146750Y69750D01*
X152151D01*
X153490Y71090D01*
X138460Y56400D02*
X140138D01*
X80700Y78800D02*
X81000Y78500D01*
X80000Y78800D02*
X80700D01*
X80000Y80000D02*
Y80400D01*
Y79600D02*
Y80000D01*
Y79200D02*
Y79600D01*
X76312Y72000D02*
X81500Y77188D01*
X84250Y82458D02*
Y83542D01*
X81770Y77798D02*
X82768Y76800D01*
X81500Y82732D02*
X82653Y83885D01*
X81500Y77188D02*
Y82732D01*
X81770Y80770D02*
X82600Y81600D01*
X81770Y77798D02*
Y80770D01*
X82550Y79200D02*
X83080D01*
X80000Y78800D02*
Y79200D01*
Y80400D02*
Y80800D01*
X120000Y71000D02*
X122630Y73630D01*
X153490D01*
X84045Y79107D02*
X84243Y79496D01*
X83080Y78800D02*
X83545D01*
X83080Y78400D02*
Y78800D01*
Y79200D02*
Y79600D01*
X67500Y47085D02*
Y48700D01*
X67500Y47085D02*
X68990Y45595D01*
X69500Y46105D02*
Y47402D01*
X80538Y56538D02*
X81156D01*
X81212Y56482D01*
X81500Y56194D01*
Y55912D02*
Y56194D01*
X78500Y54500D02*
X80538Y56538D01*
X81500Y55300D02*
Y55912D01*
X78500Y45100D02*
Y54500D01*
X119700Y94800D02*
X119750Y94750D01*
X117080Y94800D02*
X119700D01*
X115540Y81600D02*
Y82800D01*
Y80400D02*
Y81600D01*
Y78000D02*
Y79200D01*
Y80400D01*
Y81600D02*
X117080D01*
X115540Y80400D02*
X117080D01*
X115540Y79200D02*
X117080D01*
X115540Y78000D02*
X117080D01*
X115540Y76800D02*
Y78000D01*
Y76800D02*
X117080D01*
X115540Y84000D02*
Y85200D01*
Y84000D02*
X115750D01*
X115540Y82800D02*
Y84000D01*
Y82800D02*
X117080D01*
X115500Y85240D02*
X115540Y85200D01*
X115500Y85240D02*
Y86400D01*
X115540Y85200D02*
X117080D01*
X115540Y92400D02*
Y93600D01*
Y94800D01*
Y93600D02*
X117080D01*
X115540Y94800D02*
X117080D01*
X115540Y91200D02*
Y92400D01*
X117080D01*
X115500Y91160D02*
X115540Y91200D01*
X115500Y89960D02*
Y91160D01*
X115540Y91200D02*
X117080D01*
X115500Y89960D02*
X115540Y90000D01*
X115500Y88760D02*
Y89960D01*
X115540Y90000D02*
X117080D01*
X115500Y88760D02*
X115540Y88800D01*
X115500Y87600D02*
Y88760D01*
X115540Y88800D02*
X117080D01*
X115500Y86400D02*
X117080D01*
X115500D02*
Y87600D01*
X117080D01*
X114000Y85200D02*
X115540D01*
X114000Y76800D02*
X115540D01*
X114000Y78000D02*
X115540D01*
X114000Y79200D02*
X115540D01*
X114000Y80400D02*
X115540D01*
X114000Y81600D02*
X115540D01*
X114000Y82800D02*
X115540D01*
X114000Y84000D02*
Y84000D01*
X115540D01*
X115750Y84000D02*
Y84000D01*
Y84000D02*
X117080D01*
X114000Y88800D02*
X115540D01*
X114000Y90000D02*
X115540D01*
X114000Y91200D02*
X115540D01*
X114000Y92400D02*
X115540D01*
X114000Y93600D02*
X115540D01*
X114000Y94800D02*
X115540D01*
X96300Y84800D02*
X120500Y109000D01*
Y115900D02*
X122100Y117500D01*
X120500Y109000D02*
Y115900D01*
X127400Y117500D02*
X128800Y118900D01*
X122100Y117500D02*
X127400D01*
X82250Y84500D02*
Y86000D01*
X80000Y85200D02*
X81157D01*
X81457Y85500D01*
X81500D01*
X80000Y84400D02*
X80535D01*
Y83823D02*
Y84400D01*
X82924D01*
X79000Y86912D02*
X79465Y87377D01*
X79000Y86250D02*
Y86912D01*
X79465Y87377D02*
X79688Y87600D01*
X79465Y87377D02*
Y87377D01*
X79688Y87600D02*
X80000D01*
X79000Y86250D02*
X79650Y85600D01*
X80000D01*
X80312Y83200D02*
X80535Y82977D01*
Y83777D01*
X80000Y83200D02*
X80312D01*
X80312Y82000D02*
X80535Y82223D01*
X80000Y82000D02*
X80312D01*
X80535Y82623D02*
Y82977D01*
X80535Y82223D02*
Y82577D01*
X82250Y95482D02*
X82768Y96000D01*
X83080D01*
X82250Y94800D02*
Y95482D01*
Y94118D02*
Y94800D01*
X83080D01*
X82250Y94118D02*
X82768Y93600D01*
X83080D01*
X83392D01*
X83392Y92000D02*
X83615Y92223D01*
X83080Y92000D02*
X83392D01*
X83392Y93600D02*
X83615Y93377D01*
Y93023D02*
Y93377D01*
Y92623D02*
Y92977D01*
X83615Y92223D02*
Y92577D01*
X82250Y86000D02*
X82250Y86000D01*
X83080D01*
X82250Y86000D02*
Y88000D01*
X83080Y83200D02*
X84165D01*
X82768Y76800D02*
X83080D01*
X82653Y83885D02*
X82768Y84000D01*
X83018D01*
X83080D01*
X83392Y81600D02*
X84250Y82458D01*
X83080Y81600D02*
X83392D01*
X82250Y88000D02*
Y90000D01*
X83392Y84400D02*
X84250Y83542D01*
X83080Y84400D02*
X83392D01*
X82600Y81600D02*
X83080D01*
X82250Y88000D02*
X83080D01*
X81500Y87364D02*
X81564D01*
X80856Y86400D02*
X81500Y87044D01*
X81053Y87941D02*
Y88274D01*
X80427Y87315D02*
X81053Y87941D01*
X81404Y87748D02*
Y88008D01*
X81500Y87044D02*
Y87364D01*
X80456Y86800D02*
X81404Y87748D01*
Y88008D02*
X81448Y88052D01*
X82250Y90000D02*
X83080D01*
X82250D02*
Y92000D01*
X80535D02*
X82250D01*
X83080D01*
X82061Y92415D02*
X83065D01*
X82244Y92800D02*
X83080D01*
X81486Y92491D02*
X81985D01*
X82061Y92415D01*
X80265Y88015D02*
X80365Y88115D01*
X80000Y88000D02*
X80015Y88015D01*
X80365Y88515D02*
X80427D01*
X80927Y89015D01*
X80015Y88015D02*
X80265D01*
X80365Y88115D02*
X80427D01*
X80535Y89823D02*
Y91823D01*
Y92000D01*
X80000Y89600D02*
X80312D01*
X80535Y89823D01*
Y92000D02*
Y92177D01*
Y93377D02*
Y94577D01*
X80312Y94800D02*
X80535Y94577D01*
X80000Y94800D02*
X80312D01*
Y91600D02*
X80535Y91823D01*
X80000Y91600D02*
X80312D01*
X80427Y93485D02*
X80535Y93377D01*
Y93023D02*
Y93377D01*
Y92223D02*
Y92577D01*
Y92623D02*
Y92977D01*
X80427Y93485D02*
X80427D01*
X80312Y93600D02*
X80427Y93485D01*
X80000Y93600D02*
X80312D01*
X79973Y91973D02*
X80000Y92000D01*
X76973Y91973D02*
X79973D01*
X79100Y93600D02*
X80000D01*
X78763Y92513D02*
X79450Y93200D01*
X80000D01*
X74013Y92513D02*
X78763D01*
X73743Y92243D02*
X74013Y92513D01*
X72000Y90500D02*
X73743Y92243D01*
X79147Y92258D02*
X79688Y92800D01*
X79147Y92258D02*
Y92258D01*
X73500Y91000D02*
X74743Y92243D01*
X79132D01*
X79147Y92258D01*
X76000Y91000D02*
X76973Y91973D01*
X79688Y92800D02*
X80000D01*
X77617Y91456D02*
X78014D01*
X77573Y91500D02*
X77617Y91456D01*
X78014D02*
X78270Y91200D01*
X81500Y39402D02*
Y43000D01*
X81000Y43500D02*
X81500Y43000D01*
X80000Y43500D02*
X81000D01*
X80035Y37937D02*
X81500Y39402D01*
X67525Y42550D02*
X68010Y43035D01*
Y45389D01*
X67000Y46399D02*
X68010Y45389D01*
X77422Y76400D02*
X80000D01*
X77000Y76000D02*
X77022D01*
X77422Y76400D01*
X112380Y123540D02*
X113600Y122320D01*
Y119500D02*
Y122320D01*
X109800Y115700D02*
X113600Y119500D01*
X109800Y111600D02*
Y115700D01*
X85415Y87215D02*
X109800Y111600D01*
X114920Y123540D02*
X116100Y122360D01*
Y120100D02*
Y122360D01*
X110748Y114748D02*
X116100Y120100D01*
X110748Y109448D02*
Y114748D01*
X83080Y91200D02*
X83392D01*
X83507Y91315D01*
X83080Y90800D02*
X83392D01*
X83507Y90915D01*
X90722Y98130D02*
Y122338D01*
X83507Y90915D02*
X90722Y98130D01*
X83080Y90400D02*
X83392D01*
X83507Y90515D01*
X93262Y100270D02*
Y122338D01*
X83507Y90515D02*
X93262Y100270D01*
X83392Y89600D02*
X95802Y102010D01*
X83330Y89600D02*
X83392D01*
X83392Y89200D02*
X98342Y104150D01*
X83330Y89200D02*
X83392D01*
X83080Y88800D02*
X83392D01*
X83507Y88915D01*
X103268Y108676D01*
Y122493D01*
X83080Y88400D02*
X83392D01*
X83507Y88515D01*
X105808Y110816D02*
Y122493D01*
X83507Y88515D02*
X105808Y110816D01*
X83830Y87715D02*
X84115D01*
X83430Y87600D02*
X83715D01*
X83830Y87715D01*
X83330Y87600D02*
X83430D01*
X84115Y87715D02*
X108600Y112200D01*
Y121258D01*
X83095Y87215D02*
X85415D01*
X83095Y86815D02*
X88115D01*
X110748Y109448D01*
X111955Y113978D02*
X113324Y115347D01*
X113335Y115335D02*
X118507Y120507D01*
X111955Y107755D02*
Y111422D01*
Y113978D01*
X118507Y120507D02*
Y122493D01*
X90615Y86415D02*
X111955Y107755D01*
X83095Y86415D02*
X90615D01*
X118400Y117300D02*
X121300Y120200D01*
X113659Y106559D02*
X118400Y111300D01*
Y117300D01*
X121300Y120200D02*
Y122300D01*
X98342Y104150D02*
Y122338D01*
X95802Y102010D02*
Y122338D01*
X83507Y91315D02*
X88182Y95990D01*
Y122338D01*
X83615Y91823D02*
X85642Y93850D01*
Y122338D01*
X83392Y91600D02*
X83615Y91823D01*
X83268Y91600D02*
X83392D01*
X83080D02*
X83268D01*
X83080Y89200D02*
X83330D01*
X83080Y89600D02*
X83330D01*
X83407Y85585D02*
X92685D01*
X113659Y106559D01*
X121300Y122300D02*
X122540Y123540D01*
X83080Y85600D02*
X83392D01*
X83407Y85585D01*
X119500Y110500D02*
Y116100D01*
X123900Y120500D02*
Y122360D01*
X83080Y84800D02*
X96300D01*
X123900Y122360D02*
X124470Y122930D01*
X119500Y116100D02*
X123900Y120500D01*
X94200Y85200D02*
X119500Y110500D01*
X83080Y85200D02*
X94200D01*
X108600Y121258D02*
Y122240D01*
X107910Y122930D02*
X108600Y122240D01*
X107300Y123540D02*
X107910Y122930D01*
X125080D02*
Y123540D01*
X124470Y122930D02*
X125080D01*
X128800Y118900D02*
Y122360D01*
X127620Y123540D02*
X128800Y122360D01*
X81157Y90205D02*
X81646Y90695D01*
X81542Y89983D02*
X81770Y89755D01*
X81542Y89983D02*
Y90046D01*
X80887Y90439D02*
X81460Y91012D01*
X81646Y90695D02*
X81690D01*
X81460Y91012D02*
Y91526D01*
X81486Y91552D01*
X82545Y93423D02*
X82768Y93200D01*
X83080D01*
X75600Y79200D02*
X77600Y81200D01*
X80000D01*
X67000Y79400D02*
X73200D01*
X76200Y82400D01*
X60635Y73035D02*
X67000Y79400D01*
X66500Y80500D02*
X73300D01*
X56500Y74000D02*
X60000D01*
X66500Y80500D01*
X57400Y73035D02*
X60635D01*
X56793Y78160D02*
X60560D01*
X66600Y84200D01*
X73000D01*
X54173Y72000D02*
X76312D01*
X53565Y72608D02*
X54173Y72000D01*
X75600Y82800D02*
X80000D01*
X73300Y80500D02*
X75600Y82800D01*
X76200Y82400D02*
X78159D01*
X74500Y79400D02*
X77100Y82000D01*
X80000D01*
X74500Y78300D02*
Y79400D01*
X67100Y83100D02*
X73100D01*
X74000Y84000D01*
X80000D01*
X66600Y81600D02*
X73100D01*
X75100Y83600D01*
X80000D01*
X73000Y84200D02*
X73600Y84800D01*
X80000D01*
X60000Y75000D02*
X66600Y81600D01*
X60000Y76000D02*
X67100Y83100D01*
X58809Y107309D02*
Y110021D01*
X56775Y105275D02*
X58809Y107309D01*
Y110209D02*
X59600Y111000D01*
X58809Y109691D02*
Y110209D01*
X47798Y113302D02*
X48748Y112352D01*
X47798Y113302D02*
Y114427D01*
X56775Y103765D02*
Y105275D01*
X76500Y37937D02*
X77063Y38500D01*
X79437D02*
X80000Y37937D01*
X77063Y38500D02*
X79437D01*
X64500Y48202D02*
Y49375D01*
X64203Y48325D02*
Y49498D01*
X58334Y42456D02*
X64203Y48325D01*
X58457Y42159D02*
X64500Y48202D01*
X57511Y41153D02*
Y41633D01*
X58334Y42456D01*
X57808Y39872D02*
Y41510D01*
X58457Y42159D01*
X57511Y39985D02*
Y41153D01*
X55792Y39101D02*
X57058Y39532D01*
X56500Y37960D02*
Y38554D01*
X57808Y39862D01*
Y39872D01*
X57058Y39532D02*
X57511Y39985D01*
X64705Y50000D02*
X65200D01*
X64203Y49498D02*
X64705Y50000D01*
X64500Y49375D02*
X64625Y49500D01*
X65200D01*
X77500Y78500D02*
X78000Y78000D01*
X78270Y91200D02*
X80000D01*
X77549Y79500D02*
X78649Y78400D01*
X77500Y79500D02*
X77549D01*
X78649Y78400D02*
X80000D01*
X78000Y78000D02*
X80000D01*
X148000Y70700D02*
X148700D01*
X150500Y72500D01*
X154901D01*
X156030Y73630D01*
X98915Y64993D02*
Y67031D01*
X99477Y65082D02*
X112868Y51690D01*
X98915Y64993D02*
X112868Y51040D01*
X99477Y65082D02*
Y66851D01*
X85928Y80400D02*
X99477Y66851D01*
X112868Y51040D02*
X112930D01*
X83080Y80400D02*
X85928D01*
X112868Y51690D02*
X112930D01*
X112930Y51040D02*
X113170Y50800D01*
X113670D01*
X113170Y51450D02*
X113670D01*
X112930Y51690D02*
X113170Y51450D01*
X84000Y78000D02*
X84802Y78802D01*
X83080Y78000D02*
X84000D01*
X84164Y75817D02*
Y76428D01*
X84000Y75500D02*
X84164Y75664D01*
Y75817D01*
X83392Y77200D02*
X84164Y76428D01*
X84004Y77600D02*
X84552Y77052D01*
X83080Y77600D02*
X84004D01*
X83065Y92415D02*
X83080Y92400D01*
X120000Y71000D02*
X120040D01*
X120287Y70753D01*
X121873D01*
X81000Y86000D02*
X81500Y86500D01*
X79194Y90314D02*
X79314D01*
X78880Y90000D02*
X79194Y90314D01*
X78865Y90000D02*
X78880D01*
X79314Y90314D02*
X79400Y90400D01*
X80000D01*
X76429Y77200D02*
X80000D01*
X77400Y77600D02*
X80000D01*
X76500Y78500D02*
X77400Y77600D01*
X74500Y77650D02*
X75979D01*
X76429Y77200D01*
X83080D02*
X83392D01*
X78000Y90500D02*
X78300Y90800D01*
X80000D01*
X76000Y87000D02*
Y91000D01*
X79465Y88892D02*
Y88977D01*
X79000Y88427D02*
X79465Y88892D01*
Y88977D02*
X79688Y89200D01*
X80000D01*
X79115Y89115D02*
Y89427D01*
X79000Y89000D02*
X79115Y89115D01*
Y89427D02*
X79688Y90000D01*
X80000D01*
X79000Y87500D02*
Y88427D01*
X48935Y88500D02*
X52500D01*
X56775Y103765D02*
X57040Y103500D01*
X58000Y102540D01*
X60289Y115551D02*
X65750D01*
X80000Y87200D02*
X80250D01*
X80365Y87315D02*
X80427D01*
X80250Y87200D02*
X80365Y87315D01*
X80000Y86400D02*
X80856D01*
X80000Y88400D02*
X80015Y88415D01*
X80265D01*
X80365Y88515D01*
X80000Y86800D02*
X80300D01*
X80456D01*
X80000Y86000D02*
X81000D01*
X78159Y82400D02*
X80000D01*
X84440Y123540D02*
X85642Y122338D01*
X86980Y123540D02*
X88182Y122338D01*
X89520Y123540D02*
X90722Y122338D01*
X92060Y123540D02*
X93262Y122338D01*
X94600Y123540D02*
X95802Y122338D01*
X97140Y123540D02*
X98342Y122338D01*
X102220Y123540D02*
X103268Y122493D01*
X104760Y123540D02*
X105808Y122493D01*
X83080Y87600D02*
X83330D01*
X83080Y87200D02*
X83095Y87215D01*
X83080Y86800D02*
X83095Y86815D01*
X83080Y86400D02*
X83095Y86415D01*
X117460Y123540D02*
X118507Y122493D01*
X47590Y93586D02*
Y93995D01*
X47065Y93061D02*
X47590Y93586D01*
X47065Y88500D02*
Y93061D01*
X45928Y106397D02*
X47590Y104735D01*
X45928Y106397D02*
Y114427D01*
X83080Y75080D02*
Y76400D01*
X76500Y68500D02*
X83080Y75080D01*
X84650Y44125D02*
X85065Y43710D01*
X79475Y44125D02*
X84650D01*
X78500Y45100D02*
X79475Y44125D01*
X70510Y40491D02*
Y43015D01*
X69285Y39266D02*
X70510Y40491D01*
X69285Y37415D02*
Y39266D01*
X68870Y37000D02*
X69285Y37415D01*
X71287Y50500D02*
X71619Y50168D01*
X70800Y50500D02*
X71287D01*
X70800Y49500D02*
X71560D01*
X71619Y49559D01*
Y50168D01*
X69500Y47402D02*
X69689D01*
X70800Y48513D01*
Y49500D01*
X69500Y47402D02*
Y48700D01*
X70025Y43500D02*
X70510Y43015D01*
X69750Y43500D02*
X70025D01*
X79937Y43437D02*
X80000Y43500D01*
X76500Y43437D02*
X79937D01*
X76465D02*
X76500D01*
X74942Y44960D02*
X76465Y43437D01*
X72500Y44960D02*
X74942D01*
X70535D02*
X72500D01*
X70025Y44450D02*
X70535Y44960D01*
X69750Y44450D02*
X70025D01*
X67250Y42550D02*
X67525D01*
X67000Y46399D02*
Y48700D01*
X68990Y45595D02*
X69500Y46105D01*
X68990Y43035D02*
Y45595D01*
Y43035D02*
X69475Y42550D01*
X69750D01*
X74500Y53000D02*
X75500Y52000D01*
X70800Y53000D02*
X74500D01*
X58000Y75000D02*
X60000D01*
X56927Y76000D02*
X60000D01*
X53565Y72608D02*
Y74700D01*
X54100Y75235D01*
X54550Y73035D02*
X57400D01*
X54685Y79500D02*
X57500D01*
X54550Y79635D02*
X54685Y79500D01*
X56235Y80735D02*
X57000Y81500D01*
X54550Y80735D02*
X56235D01*
X54550Y74135D02*
X55000D01*
X55360Y74495D01*
X55422D02*
X56927Y76000D01*
X55360Y74495D02*
X55422D01*
X54100Y75235D02*
X54550D01*
X56068Y77435D02*
X56793Y78160D01*
X54550Y77435D02*
X56068D01*
X55505Y76490D02*
X56185Y77170D01*
X54550Y76335D02*
X54705Y76490D01*
X55505D01*
X56185Y77170D02*
X59500D01*
D119*
X65059Y91375D02*
G03*
X64930Y91407I-129J-243D01*
G01*
X53500Y41500D02*
G03*
X53257Y41341I264J-666D01*
G01*
X61196Y104466D02*
G03*
X60689Y104726I-656J-656D01*
G01*
X61456Y103959D02*
G03*
X61196Y104466I-916J-149D01*
G01*
X68327Y96206D02*
X76615D01*
X77040Y96631D01*
X67060D02*
X69291D01*
X76651D01*
X76926Y96906D01*
X67736Y98014D02*
Y98778D01*
X61174Y105340D02*
X67736Y98778D01*
X67185Y96131D02*
X67260Y96206D01*
X68327D01*
X67060Y96131D02*
X67185D01*
X76926Y96906D02*
X77750D01*
X60236Y105340D02*
X61174D01*
X66284Y93216D02*
X66966D01*
X67500Y93750D01*
X63337Y95774D02*
X66170Y92941D01*
X63612Y95888D02*
X66284Y93216D01*
X66170Y92941D02*
X67437D01*
X68500Y94500D02*
X69750D01*
X70031Y94781D01*
X75930D01*
X67065Y94626D02*
X67160D01*
X66930D02*
X67065D01*
X67191Y94500D01*
X67060Y94631D02*
X67065Y94626D01*
X67191Y94500D02*
X68500D01*
X67437Y92941D02*
X68191D01*
X69000Y93750D01*
X66859Y94555D02*
X66930Y94626D01*
X69188Y95048D02*
X69196Y95056D01*
X68791D02*
X68798Y95048D01*
X68992D01*
X69000Y95056D01*
X69008Y95048D02*
X69188D01*
X69000Y95056D02*
X69008Y95048D01*
X67360Y95056D02*
X68791D01*
X69196D02*
X75816D01*
X75930Y94781D02*
X77257Y96108D01*
X75816Y95056D02*
X76867Y96108D01*
X83604Y95817D02*
Y96172D01*
X76531Y94531D02*
X77404Y95404D01*
X77728D02*
X78601Y96277D01*
X79051D02*
X79054Y96274D01*
X80524Y95428D02*
Y96172D01*
X79268Y96801D02*
X79271Y96797D01*
X80639D01*
X81054Y96383D01*
X82377D01*
X79154Y96525D02*
X79157Y96522D01*
X80525D01*
X80940Y96108D01*
X82491D01*
X82658Y96274D01*
X82327Y97073D02*
X83833D01*
X77864Y96631D02*
X78282Y97049D01*
X82161Y96906D02*
X82327Y97073D01*
X79373Y97046D02*
X80742D01*
X81156Y96631D02*
X82275D01*
X77040D02*
X77864D01*
X82658Y96274D02*
X83502D01*
X83879Y95703D02*
Y96286D01*
X78385Y96801D02*
X79268D01*
X83719Y96797D02*
X84127Y96389D01*
X82275Y96631D02*
X82441Y96797D01*
X80856Y97321D02*
X81270Y96906D01*
X78168Y97324D02*
X79484D01*
X82544Y96549D02*
X83616D01*
X79487Y97321D02*
X80856D01*
X84403Y95486D02*
Y96631D01*
X77143Y96383D02*
X77967D01*
X78385Y96801D01*
X78081Y96108D02*
X78499Y96525D01*
X82377Y96383D02*
X82544Y96549D01*
X80422Y95326D02*
X80524Y95428D01*
X80376Y95326D02*
X80422D01*
X77404Y95404D02*
X77728D01*
X76867Y96108D02*
X77143Y96383D01*
X80250Y95200D02*
X80376Y95326D01*
X80742Y97046D02*
X81156Y96631D01*
X80000Y95200D02*
X80250D01*
X78601Y96277D02*
X79051D01*
X79370Y97049D02*
X79373Y97046D01*
X78499Y96525D02*
X79154D01*
X72130Y94256D02*
X77535D01*
X79484Y97324D02*
X79487Y97321D01*
X84127Y95600D02*
Y96356D01*
X83616Y96549D02*
X83879Y96286D01*
X80422Y96274D02*
X80524Y96172D01*
X77750Y96906D02*
X78168Y97324D01*
X77535Y94256D02*
X78879Y95600D01*
X82441Y96797D02*
X83719D01*
X81270Y96906D02*
X82161D01*
X79054Y96274D02*
X80422D01*
X84275Y96631D02*
X84403D01*
X83833Y97073D02*
X84275Y96631D01*
X77257Y96108D02*
X78081D01*
X83502Y96274D02*
X83604Y96172D01*
X84127Y96356D02*
Y96389D01*
X78879Y95600D02*
X80000D01*
X78282Y97049D02*
X79370D01*
X65543Y86626D02*
Y87457D01*
X65500Y87500D02*
X65543Y87457D01*
Y86626D02*
X66664Y85506D01*
X66058Y86501D02*
Y87464D01*
Y86501D02*
X66778Y85781D01*
X66058Y87464D02*
X66120Y87527D01*
X65605Y88605D02*
Y89256D01*
X60610Y90608D02*
X64253D01*
X64367Y90883D02*
X66750Y88500D01*
X60724Y90883D02*
X64367D01*
X64253Y90608D02*
X65605Y89256D01*
Y88605D02*
X65675Y88675D01*
X65675D02*
X66002Y88348D01*
X67500Y87000D02*
Y87239D01*
X67275Y87464D02*
X67500Y87239D01*
X66750Y87989D02*
Y88500D01*
Y87989D02*
X67275Y87464D01*
X67000Y87000D02*
Y87350D01*
X66002Y88348D02*
X67000Y87350D01*
X66120Y87527D02*
X66168Y87575D01*
X78179Y94338D02*
X79688D01*
X79750Y94400D02*
X80000D01*
X77575Y93734D02*
X78179Y94338D01*
X79688D02*
X79750Y94400D01*
X56749Y94470D02*
X60610Y90608D01*
X69000Y88250D02*
Y89500D01*
X67440Y90109D02*
X68391D01*
X69000Y89500D01*
X68398Y89170D02*
Y89199D01*
X67762Y89834D02*
X68398Y89199D01*
X68500Y87000D02*
Y89000D01*
Y87000D02*
Y87125D01*
Y87000D02*
X68576Y87076D01*
X68500Y89000D02*
Y89068D01*
X64930Y91132D02*
X67371Y89834D01*
X68398Y89170D02*
X68500Y89068D01*
X67371Y89834D02*
X67762D01*
X65059Y91375D02*
X67440Y90109D01*
X69000Y87000D02*
Y88250D01*
Y87000D02*
X69000Y87000D01*
X69899Y89308D02*
Y92025D01*
X70000Y88250D02*
Y89207D01*
X69623Y89488D02*
Y92139D01*
X69548Y89048D02*
Y89413D01*
X69899Y89308D02*
X70000Y89207D01*
X69500Y89000D02*
X69548Y89048D01*
Y89413D02*
X69623Y89488D01*
X69899Y92025D02*
X70477Y92603D01*
X69623Y92139D02*
X70201Y92717D01*
X94287Y55852D02*
X94364Y55775D01*
X84861Y55852D02*
X94287D01*
X81888Y58826D02*
X84861Y55852D01*
X94364Y55775D02*
X94899D01*
X84747Y55577D02*
X94173D01*
X94250Y55500D01*
X94921Y55797D02*
X94959Y55835D01*
X94921Y55874D02*
X94959Y55835D01*
X94250Y55500D02*
X95500D01*
X81612Y58712D02*
X84747Y55577D01*
X94959Y55835D02*
X95000Y55876D01*
X95500Y55500D02*
Y56490D01*
X95525Y54025D02*
X96000Y54500D01*
X95525Y46464D02*
Y54025D01*
X94893Y45832D02*
X95525Y46464D01*
X95250Y46578D02*
Y54500D01*
X95236Y46564D02*
X95250Y46578D01*
X95225Y46575D02*
X95236Y46564D01*
X94150Y45500D02*
X95225Y46575D01*
X95000Y55876D02*
Y56615D01*
X94899Y55775D02*
X94921Y55797D01*
X94893Y44657D02*
X94950Y44600D01*
X94893Y44657D02*
Y45832D01*
X77689Y93459D02*
X78293Y94062D01*
X72073Y93459D02*
X77689D01*
X71000Y92775D02*
X71959Y93734D01*
X77575D01*
X71114Y92500D02*
X72073Y93459D01*
X78293Y94062D02*
X79688D01*
X72016Y94531D02*
X76531D01*
X63236Y91132D02*
X64930D01*
X63350Y91407D02*
X64930D01*
X57024Y94584D02*
X60724Y90883D01*
X52869Y40952D02*
X53257Y41341D01*
X52869Y40401D02*
Y40952D01*
X53500Y41500D02*
X54667Y41963D01*
X54634Y39000D02*
X54993Y39360D01*
X53500Y39000D02*
X54634D01*
X54993Y39360D02*
X55634Y40000D01*
X52869Y39631D02*
X53500Y39000D01*
X56000Y40000D02*
X56500Y40500D01*
X55634Y40000D02*
X56000D01*
X52869Y39631D02*
Y40401D01*
X64455Y50976D02*
X65176D01*
X57161Y43681D02*
X64455Y50976D01*
X54667Y41963D02*
X57161Y43681D01*
X65176Y50976D02*
X65200Y51000D01*
X53960Y40500D02*
X54369D01*
X57947Y44078D01*
X64345Y50476D01*
X64649D02*
X65176D01*
X64345D02*
X64649D01*
X65176D02*
X65200Y50500D01*
X70477Y92603D02*
Y92630D01*
X59615Y95142D02*
Y95265D01*
X60540Y96190D01*
X59615Y95142D02*
X63350Y91407D01*
X70477Y92630D02*
X70870Y93023D01*
X70897D02*
X72130Y94256D01*
X70870Y93023D02*
X70897D01*
X70201Y92717D02*
Y92744D01*
X58027Y94947D02*
X59420D01*
X63236Y91132D01*
X58000Y94920D02*
X58027Y94947D01*
X70201Y92744D02*
X70756Y93299D01*
X70783D02*
X72016Y94531D01*
X70756Y93299D02*
X70783D01*
X69222Y85781D02*
X70725Y87284D01*
X66778Y85781D02*
X69222D01*
X70725Y92527D02*
X70973Y92775D01*
X58000Y97460D02*
X59151D01*
X57024Y97864D02*
X57596Y98436D01*
X57024Y94584D02*
Y97864D01*
X59238Y97547D02*
Y97670D01*
X57596Y98436D02*
X58471D01*
X59151Y97460D02*
X59238Y97547D01*
X58471Y98436D02*
X59238Y97670D01*
X70725Y87284D02*
Y92527D01*
X70973Y92775D02*
X71000D01*
X66664Y85506D02*
X69336D01*
X71000Y87170D01*
Y92413D01*
X71087Y92500D01*
X79688Y94062D02*
X79750Y94000D01*
X80000D01*
X59492Y97805D02*
X59615D01*
X60540Y98730D01*
X58585Y98711D02*
X59492Y97805D01*
X57482Y98711D02*
X58585D01*
X56749Y94470D02*
Y97978D01*
X57482Y98711D01*
X71087Y92500D02*
X71114D01*
X84076Y94310D02*
Y95159D01*
X83828Y94062D02*
X84076Y94310D01*
X83392Y94062D02*
X83828D01*
X83330Y94000D02*
X83392Y94062D01*
X84076Y95159D02*
X84403Y95486D01*
X83080Y94000D02*
X83330D01*
X59860Y105670D02*
X60540Y106350D01*
X59179Y104870D02*
X59265Y104784D01*
X59679D01*
X59179Y104993D02*
X59490Y105304D01*
X59549D02*
X59860Y105615D01*
X59679Y104784D02*
X60236Y105340D01*
X59179Y104870D02*
Y104993D01*
X59490Y105304D02*
X59549D01*
X59860Y105615D02*
Y105670D01*
X58252Y104828D02*
X58832D01*
X59151Y104508D01*
X58000Y105080D02*
X58252Y104828D01*
X59151Y104508D02*
X59793D01*
X60350Y105065D01*
X83080Y94400D02*
X83330D01*
X83392Y94338D01*
X83714D01*
X83801Y94424D01*
Y95273D02*
X84127Y95600D01*
X83801Y94424D02*
Y95273D01*
X60350Y105065D02*
X60689Y104726D01*
X67000Y97500D02*
Y98415D01*
X61456Y103959D02*
X67000Y98415D01*
X63612Y95888D02*
Y97360D01*
X61038Y99933D02*
X63612Y97360D01*
X60564Y99933D02*
X61038D01*
X59612Y100886D02*
X60564Y99933D01*
X59612Y100886D02*
Y101154D01*
X59249Y101517D02*
X59612Y101154D01*
X59249Y101517D02*
Y102519D01*
X60540Y103810D01*
X83080Y95600D02*
X83106Y95626D01*
X83413D01*
X83604Y95817D01*
X83330Y95200D02*
X83456Y95326D01*
X83502D01*
X83879Y95703D01*
X63337Y95774D02*
Y97246D01*
X60924Y99658D02*
X63337Y97246D01*
X58000Y100000D02*
X59127Y101127D01*
X83080Y95200D02*
X83330D01*
X60450Y99658D02*
X60924D01*
X59337Y100772D02*
X60450Y99658D01*
X59337Y100772D02*
Y101040D01*
X59250Y101127D02*
X59337Y101040D01*
X59127Y101127D02*
X59250D01*
X68615Y54456D02*
Y55229D01*
X74283Y60897D02*
X83313D01*
X68890Y54463D02*
Y55115D01*
X68615Y55229D02*
X74283Y60897D01*
X68500Y54300D02*
Y54341D01*
X68890Y54463D02*
X68971Y54382D01*
X68890Y55115D02*
X74397Y60622D01*
X68500Y54341D02*
X68615Y54456D01*
X68971Y54329D02*
Y54382D01*
Y54329D02*
X69000Y54300D01*
X83313Y60897D02*
X83647Y60563D01*
X82500Y59150D02*
Y59275D01*
Y59150D02*
X82612Y59038D01*
Y58712D02*
Y59038D01*
Y58712D02*
X82860Y58464D01*
X83274D01*
X83647Y58837D01*
Y60563D01*
X74397Y60622D02*
X83199D01*
X82888Y59038D02*
X82951Y59101D01*
X82888Y58826D02*
Y59038D01*
Y58826D02*
X82974Y58739D01*
X83160D01*
X83372Y58951D01*
Y60449D01*
X83199Y60622D02*
X83372Y60449D01*
X81612Y58712D02*
Y59038D01*
X81500Y59150D02*
Y59700D01*
Y59150D02*
X81612Y59038D01*
X81888Y58826D02*
Y59038D01*
X82000Y59150D02*
Y59700D01*
X81888Y59038D02*
X82000Y59150D01*
X95500Y56490D02*
Y56615D01*
X83000Y59200D02*
X83011Y59211D01*
X56348Y50837D02*
X59899D01*
X61175Y52112D01*
X64416D01*
X64505Y52024D01*
X65176D01*
X65200Y52000D01*
X55413Y51772D02*
Y52121D01*
X54549Y52862D02*
X54672D01*
X54455Y52245D02*
Y52768D01*
X55413Y51772D02*
X56348Y50837D01*
X54672Y52862D02*
X55413Y52121D01*
X54455Y52768D02*
X54549Y52862D01*
X54210Y52000D02*
X54455Y52245D01*
X64416Y52388D02*
X64505Y52476D01*
X65176D01*
X65200Y52500D01*
X54786Y53138D02*
X55688Y52235D01*
X54455Y53232D02*
X54549Y53138D01*
X55688Y51886D02*
Y52235D01*
Y51886D02*
X56462Y51112D01*
X59785D01*
X61061Y52388D01*
X64416D01*
X54210Y54000D02*
X54455Y53755D01*
X54549Y53138D02*
X54786D01*
X54455Y53232D02*
Y53755D01*
X56830Y54000D02*
X57692Y53138D01*
X60539D01*
X60789Y53388D01*
X64416D01*
X64505Y53476D01*
X65176D02*
X65200Y53500D01*
X64505Y53476D02*
X65176D01*
X64505Y53024D02*
X65176D01*
X60903Y53112D02*
X64416D01*
X57692Y52862D02*
X60653D01*
X65176Y53024D02*
X65200Y53000D01*
X64416Y53112D02*
X64505Y53024D01*
X60653Y52862D02*
X60903Y53112D01*
X56830Y52000D02*
X57692Y52862D01*
X94150Y44600D02*
Y45500D01*
D120*
X131874Y44688D02*
D03*
D121*
X115040Y112700D02*
D03*
X82040D02*
D03*
X115040Y64700D02*
D03*
X82040D02*
D03*
D122*
X56830Y56500D02*
D03*
Y54000D02*
D03*
Y52000D02*
D03*
Y49500D02*
D03*
X54210Y56500D02*
D03*
Y54000D02*
D03*
Y52000D02*
D03*
Y49500D02*
D03*
D123*
X57180Y59570D02*
D03*
X51500D02*
D03*
X57180Y46430D02*
D03*
X51500D02*
D03*
D124*
X44050Y80235D02*
D03*
Y72235D02*
D03*
D125*
X59040Y40500D02*
D03*
X156893Y81264D02*
D03*
X115697Y37211D02*
D03*
D126*
X59040Y37960D02*
D03*
X56500Y40500D02*
D03*
Y37960D02*
D03*
X53960Y40500D02*
D03*
Y37960D02*
D03*
X51420Y40500D02*
D03*
Y37960D02*
D03*
X48880Y40500D02*
D03*
Y37960D02*
D03*
X153490Y58390D02*
D03*
X156030Y60930D02*
D03*
X153490D02*
D03*
X156030Y63470D02*
D03*
X153490D02*
D03*
X156030Y66010D02*
D03*
X153490D02*
D03*
X156030Y68550D02*
D03*
X153490D02*
D03*
X156030Y71090D02*
D03*
X153490D02*
D03*
X156030Y73630D02*
D03*
X153490D02*
D03*
X154353Y81264D02*
D03*
X151813D02*
D03*
X149273D02*
D03*
X52000Y118000D02*
D03*
X54540Y120540D02*
D03*
X52000D02*
D03*
X60289Y115551D02*
D03*
Y118091D02*
D03*
X65750Y115551D02*
D03*
Y118091D02*
D03*
X108077Y37211D02*
D03*
X110617D02*
D03*
X113157D02*
D03*
D127*
X51650Y106350D02*
D03*
Y94920D02*
D03*
X158000Y38000D02*
D03*
X43000Y123500D02*
D03*
X158000D02*
D03*
X43000Y38000D02*
D03*
D128*
X54700Y108485D02*
D03*
Y92785D02*
D03*
D129*
X60540Y106350D02*
D03*
D130*
X58000Y105080D02*
D03*
X60540Y103810D02*
D03*
X58000Y102540D02*
D03*
X60540Y101270D02*
D03*
X58000Y100000D02*
D03*
X60540Y98730D02*
D03*
X58000Y97460D02*
D03*
X60540Y96190D02*
D03*
X58000Y94920D02*
D03*
X54210Y103810D02*
D03*
Y97460D02*
D03*
D131*
X55480Y106350D02*
D03*
Y94920D02*
D03*
D132*
X47590Y107275D02*
D03*
Y104735D02*
D03*
Y96535D02*
D03*
Y93995D02*
D03*
D133*
X156030Y58390D02*
D03*
X54540Y118000D02*
D03*
X60289Y120631D02*
D03*
X65750D02*
D03*
D134*
X130160Y123540D02*
D03*
D135*
Y121000D02*
D03*
X127620Y123540D02*
D03*
Y121000D02*
D03*
X125080Y123540D02*
D03*
Y121000D02*
D03*
X122540Y123540D02*
D03*
Y121000D02*
D03*
X120000Y123540D02*
D03*
Y121000D02*
D03*
X117460Y123540D02*
D03*
Y121000D02*
D03*
X114920Y123540D02*
D03*
Y121000D02*
D03*
X112380Y123540D02*
D03*
Y121000D02*
D03*
X109840Y123540D02*
D03*
Y121000D02*
D03*
X107300Y123540D02*
D03*
Y121000D02*
D03*
X104760Y123540D02*
D03*
Y121000D02*
D03*
X102220Y123540D02*
D03*
Y121000D02*
D03*
X99680Y123540D02*
D03*
Y121000D02*
D03*
X97140Y123540D02*
D03*
Y121000D02*
D03*
X94600Y123540D02*
D03*
Y121000D02*
D03*
X92060Y123540D02*
D03*
Y121000D02*
D03*
X89520Y123540D02*
D03*
Y121000D02*
D03*
X86980Y123540D02*
D03*
Y121000D02*
D03*
X84440Y123540D02*
D03*
Y121000D02*
D03*
X81900Y123540D02*
D03*
Y121000D02*
D03*
D136*
X97150Y41950D02*
D03*
X92750D02*
D03*
D137*
X146920Y89900D02*
D03*
D138*
X149820Y94700D02*
D03*
D139*
X153220Y89900D02*
D03*
D140*
X69291Y96631D02*
D03*
X67736Y98014D02*
D03*
X68327Y96206D02*
D03*
X67500Y93750D02*
D03*
X68500Y94500D02*
D03*
X69000Y93750D02*
D03*
Y95000D02*
D03*
X65605Y88605D02*
D03*
X66750Y88500D02*
D03*
X65500Y87500D02*
D03*
X66168Y87575D02*
D03*
X68500Y89000D02*
D03*
X70000Y88250D02*
D03*
X69000D02*
D03*
X69500Y89000D02*
D03*
X94921Y55874D02*
D03*
X96000Y54500D02*
D03*
X95250D02*
D03*
X95500Y55500D02*
D03*
X81688Y88869D02*
D03*
X81250Y94500D02*
D03*
Y93500D02*
D03*
X65250Y45000D02*
D03*
X149000Y72750D02*
D03*
X129500Y70500D02*
D03*
X115750Y46750D02*
D03*
X140500Y56250D02*
D03*
X111500Y43000D02*
D03*
X101000Y70500D02*
D03*
X82250Y79500D02*
D03*
X81000Y78500D02*
D03*
X99750Y76250D02*
D03*
X84250Y79500D02*
D03*
X53500Y86250D02*
D03*
X70500Y85000D02*
D03*
X72500Y75500D02*
D03*
X68500Y47250D02*
D03*
X63450Y51440D02*
D03*
X65500Y47250D02*
D03*
X65250Y55250D02*
D03*
X72250Y53750D02*
D03*
Y51500D02*
D03*
X137000Y108000D02*
D03*
X79000Y86250D02*
D03*
X77500Y93000D02*
D03*
X77573Y91500D02*
D03*
X77500Y94750D02*
D03*
X68000Y95500D02*
D03*
X67750Y88000D02*
D03*
X77000Y76000D02*
D03*
X81690Y90695D02*
D03*
X81542Y90046D02*
D03*
X81486Y91552D02*
D03*
X81486Y92491D02*
D03*
X63500Y83000D02*
D03*
X75600Y79200D02*
D03*
X48748Y112352D02*
D03*
X77500Y78500D02*
D03*
Y79500D02*
D03*
X144000Y71500D02*
D03*
X84802Y78802D02*
D03*
X84000Y75500D02*
D03*
X84552Y77052D02*
D03*
X120000Y71000D02*
D03*
X81500Y85500D02*
D03*
Y86500D02*
D03*
X78865Y90000D02*
D03*
X81564Y87364D02*
D03*
X81448Y88052D02*
D03*
X76500Y78500D02*
D03*
X78000Y90500D02*
D03*
X79000Y89000D02*
D03*
X67000Y97500D02*
D03*
X73500Y91000D02*
D03*
X52500Y88500D02*
D03*
X72000Y90500D02*
D03*
X79000Y87500D02*
D03*
D141*
X85000Y54666D02*
D03*
X102250Y76750D02*
D03*
X79750Y53250D02*
D03*
X130750Y61500D02*
D03*
X135750Y88000D02*
D03*
X125250Y92750D02*
D03*
X119750Y94750D02*
D03*
X59500Y83000D02*
D03*
X52250Y65250D02*
D03*
X66500Y63250D02*
D03*
X79500Y59500D02*
D03*
X96500Y58500D02*
D03*
X91500Y49500D02*
D03*
X72500Y40000D02*
D03*
X88000Y37000D02*
D03*
X64500D02*
D03*
X76500Y68500D02*
D03*
X75500Y52000D02*
D03*
X56500Y74000D02*
D03*
X58000Y75000D02*
D03*
X57500Y79500D02*
D03*
X57000Y81500D02*
D03*
M02*
