M48
;Layer_Color=9474304
;FILE_FORMAT=4:2
METRIC,LZ
;TYPE=PLATED
T01F00S00C0.25
T02F00S00C0.71
T03F00S00C0.90
T04F00S00C0.92
T05F00S00C1.00
T07F00S00C1.12
T08F00S00C1.15
T09F00S00C1.70
T10F00S00C2.70
%
T01
X012Y0071
X01295Y00705
X0144Y00715
X0149Y007275
X01405Y005625
X011575Y004675
X01115Y0043
X0096Y00545
X009525
X00955Y00555
X009492Y005587
X0101Y00705
X009975Y007625
X008455Y007705
X00848Y00788
X0081Y00785
X0084Y00755
X0077Y0076
X00775Y00785
X00765
X00756Y00792
X00725Y00755
X007225Y005375
Y00515
X00685Y004725
X00655
X006525Y0045
X006345Y005144
X006525Y005525
X00635Y0083
X00655Y00875
X006617Y008758
X006675Y00885
X00656Y00886
X006775Y0088
X0069Y008825
X007
X00695Y0089
X00685
X0072Y00905
X00735Y0091
X007757Y00915
X0078Y00905
X007886Y009
X0079Y0089
Y00875
Y008625
X00775Y0093
Y009475
X0069Y0095
X00685Y00945
X0069Y009375
X00675
X0068Y00955
X006833Y009621
X006929Y009663
X006774Y009801
X0067Y00975
X00705Y0085
X00775Y00795
X00535Y008625
X00525Y00885
X004875Y011235
X008125Y00945
Y00935
X008149Y009249
X008149Y009155
X008169Y009069
X008154Y009005
X008169Y008887
X008145Y008805
X008156Y008736
X00815Y00865
Y00855
X008225Y00795
X008425
X0137Y0108
T02
X00645Y0037
X0088
X013075Y00615
X00965Y00585
X00915Y00495
X0085Y005467
X007975Y005325
X00795Y00595
X010225Y007675
X00765Y00685
X00665Y006325
X005225Y006525
X00565Y0074
X0058Y0075
X00755Y0052
X00725Y004
X00575Y00795
X0057Y00815
X00595Y0083
X011975Y009475
X012525Y009275
X013575Y0088
T03
X004888Y003796
X005142
X005396
X00565
X005904
X010808Y003721
X011062
X011316
X01157
X015349Y005839
X015603
Y006093
X015349
Y006347
X015603
Y006601
X015349
Y006855
X015603
Y007109
X015349
Y007363
X015603
X005904Y00405
X00565
X005396
X005142
X004888
X005548Y009492
Y010635
X005454Y0118
X0052
X006029Y011809
Y011555
X006575
Y011809
X014927Y008126
X015181
X015435
X015689
X006575Y012063
X006029
X005454Y012054
X0052
T04
X005421Y00495
Y0052
Y0054
Y00565
X005683
Y0054
Y0052
Y00495
T05
X005421Y009746
X0058
Y01
Y010254
Y010508
X006054Y010635
Y010381
Y010127
Y009873
Y009619
X0058Y009492
X005421Y010381
T07
X004759Y0094
Y009654
Y010474
Y010728
T08
X012Y0121
X012254
X012508
X012762
X013016
Y012354
X012762
X012508
X012254
X012
X011746
Y0121
X011492
Y012354
X011238
Y0121
X010984
Y012354
X01073
Y0121
X010476
Y012354
X010222
Y0121
X009968
Y012354
X009714
Y0121
X00946
Y012354
X009206
Y0121
X008952
Y012354
X008698
Y0121
X008444
Y012354
X00819
Y0121
T09
X00547Y009279
Y010849
T10
X008204Y00647
X011504
Y01127
X008204
M30
