G04*
G04 #@! TF.GenerationSoftware,Altium Limited,Altium Designer,25.2.1 (25)*
G04*
G04 Layer_Physical_Order=3*
G04 Layer_Color=16440176*
%FSLAX43Y43*%
%MOMM*%
G71*
G04*
G04 #@! TF.SameCoordinates,0A798D29-7D92-4AD3-8B22-41AEFD2D755B*
G04*
G04*
G04 #@! TF.FilePolarity,Positive*
G04*
G01*
G75*
%ADD10C,0.254*%
%ADD118C,0.170*%
%ADD121C,5.800*%
%ADD122C,1.428*%
%ADD123C,2.300*%
%ADD124C,0.500*%
%ADD125R,1.500X1.500*%
%ADD126C,1.500*%
%ADD127C,3.350*%
%ADD128C,2.550*%
%ADD129R,1.508X1.508*%
%ADD130C,1.508*%
%ADD131C,1.408*%
%ADD132C,1.680*%
%ADD133R,1.500X1.500*%
%ADD135C,1.725*%
%ADD136C,0.900*%
%ADD137O,2.200X4.400*%
%ADD138O,4.000X2.000*%
%ADD139O,2.000X4.000*%
%ADD140C,0.400*%
%ADD141C,1.270*%
G36*
X125599Y93500D02*
X125599D01*
X125755Y93469D01*
X125826Y93439D01*
X125939Y93326D01*
X126000Y93179D01*
X126000Y93099D01*
X126000Y93099D01*
Y93099D01*
X126035Y93021D01*
X126072Y92853D01*
X126075Y92681D01*
X126045Y92511D01*
X126000Y92395D01*
Y90250D01*
X126010Y90152D01*
X126084Y89972D01*
X126222Y89834D01*
X126402Y89760D01*
X126500Y89750D01*
X135598D01*
X135792Y89712D01*
X135974Y89636D01*
X136137Y89527D01*
X136277Y89387D01*
X136386Y89224D01*
X136462Y89042D01*
X136486Y88920D01*
X136477Y88906D01*
X136500Y88750D01*
Y88750D01*
X136500D01*
X136500Y88750D01*
Y85040D01*
X136512Y84791D01*
X136609Y84303D01*
X136800Y83843D01*
X137077Y83429D01*
X137429Y83077D01*
X137843Y82800D01*
X138303Y82609D01*
X138791Y82512D01*
X139040Y82500D01*
X150250D01*
X150250Y80707D01*
X150250Y80648D01*
X150205Y80540D01*
X150121Y80457D01*
X150108Y80452D01*
X149953Y80414D01*
X149953Y80414D01*
X149953Y80414D01*
X148241Y80434D01*
X144815Y80466D01*
X141389Y80488D01*
X137963Y80499D01*
X136250Y80500D01*
X136250Y80500D01*
X136250Y80500D01*
X136092Y80507D01*
X135885Y80548D01*
X135658Y80642D01*
X135453Y80779D01*
X135279Y80953D01*
X135142Y81158D01*
X135048Y81385D01*
X135000Y81627D01*
Y81750D01*
Y88750D01*
X125152D01*
X124958Y88788D01*
X124776Y88864D01*
X124613Y88973D01*
X124473Y89113D01*
X124364Y89276D01*
X124288Y89458D01*
X124250Y89652D01*
Y91975D01*
X110500Y92250D01*
X110500Y92250D01*
X110390Y92232D01*
X110179Y92165D01*
X109984Y92058D01*
X109815Y91915D01*
X109676Y91742D01*
X109574Y91545D01*
X109512Y91332D01*
X109493Y91111D01*
X109500Y91000D01*
X109500Y63000D01*
X109506Y62877D01*
X109554Y62637D01*
X109648Y62411D01*
X109784Y62207D01*
X109957Y62034D01*
X110161Y61898D01*
X110387Y61804D01*
X110627Y61756D01*
X110750Y61750D01*
X111960D01*
X112451Y61652D01*
X112913Y61461D01*
X113329Y61183D01*
X113683Y60829D01*
X113961Y60413D01*
X114152Y59951D01*
X114250Y59460D01*
Y59210D01*
Y36500D01*
Y36401D01*
X114174Y36217D01*
X114033Y36076D01*
X113849Y36000D01*
X112250D01*
Y57750D01*
X112250D01*
X112250Y57750D01*
X112250Y57750D01*
X112243Y57897D01*
X112241Y57907D01*
X112185Y58185D01*
X112073Y58457D01*
X111910Y58702D01*
X111702Y58910D01*
X111457Y59073D01*
X111185Y59185D01*
X110897Y59243D01*
X110750Y59250D01*
X110040Y59250D01*
X109790D01*
X109299Y59348D01*
X108837Y59539D01*
X108421Y59817D01*
X108067Y60171D01*
X107789Y60587D01*
X107598Y61049D01*
X107500Y61540D01*
Y61790D01*
Y92500D01*
Y92598D01*
X107538Y92792D01*
X107614Y92974D01*
X107723Y93137D01*
X107863Y93277D01*
X108026Y93386D01*
X108208Y93462D01*
X108402Y93500D01*
X125599D01*
X125599Y93500D01*
D02*
G37*
G36*
X44000Y108750D02*
X48500Y108750D01*
X48500Y108750D01*
X48500Y108750D01*
X48500D01*
X48655Y108727D01*
X48783Y108674D01*
X48924Y108533D01*
X49000Y108349D01*
X49000Y108250D01*
X49000Y106750D01*
X49000Y106750D01*
X49000Y106651D01*
X48924Y106467D01*
X48783Y106326D01*
X48599Y106250D01*
X46000D01*
X45951Y106245D01*
X45861Y106208D01*
X45792Y106139D01*
X45755Y106049D01*
X45750Y106000D01*
Y98000D01*
X45755Y97951D01*
X45792Y97861D01*
X45861Y97792D01*
X45951Y97755D01*
X46000Y97750D01*
X48550D01*
X48642Y97712D01*
X48712Y97642D01*
X48750Y97550D01*
Y95700D01*
X48712Y95608D01*
X48642Y95538D01*
X48550Y95500D01*
X46000D01*
Y87500D01*
X46010Y87402D01*
X46084Y87222D01*
X46222Y87084D01*
X46402Y87010D01*
X46500Y87000D01*
X53348D01*
X53542Y86962D01*
X53724Y86886D01*
X53887Y86777D01*
X54027Y86637D01*
X54136Y86474D01*
X54212Y86292D01*
X54250Y86098D01*
Y86000D01*
X54260Y85902D01*
X54334Y85722D01*
X54472Y85584D01*
X54652Y85510D01*
X54750Y85500D01*
X70550D01*
X70642Y85462D01*
X70712Y85392D01*
X70750Y85300D01*
Y85250D01*
Y76250D01*
X70755Y76201D01*
X70792Y76111D01*
X70861Y76042D01*
X70951Y76005D01*
X71000Y76000D01*
X72000D01*
Y80750D01*
X72059Y80809D01*
X72199Y80903D01*
X72355Y80967D01*
X72519Y81000D01*
X72604D01*
X78443Y81000D01*
X78500Y80854D01*
X78504Y80770D01*
X78537Y80606D01*
X78601Y80451D01*
X78694Y80312D01*
X78750Y80250D01*
X78812Y80194D01*
X78951Y80101D01*
X79106Y80037D01*
X79270Y80004D01*
X79354Y80000D01*
X82261D01*
X82326Y79843D01*
X82117Y79633D01*
X82076Y79572D01*
X82061Y79500D01*
X82076Y79428D01*
X82117Y79367D01*
X82178Y79326D01*
X82250Y79311D01*
X82322Y79326D01*
X82330Y79331D01*
X82500Y79258D01*
Y79000D01*
X79552D01*
X79061Y79098D01*
X78599Y79289D01*
X78183Y79567D01*
X78006Y79744D01*
X77927Y79823D01*
X77927D01*
X77885Y79865D01*
X77819Y79964D01*
X77773Y80074D01*
X77750Y80191D01*
X77750Y80250D01*
X73250Y80250D01*
X73137Y80126D01*
X72952Y79848D01*
X72824Y79538D01*
X72758Y79210D01*
X72750Y79043D01*
Y55207D01*
X72758Y55040D01*
X72824Y54712D01*
X72952Y54402D01*
X73137Y54124D01*
X73250Y54000D01*
X79896Y54000D01*
X79981D01*
X79981Y54000D01*
X84683Y54000D01*
X84716Y53981D01*
X84903Y53931D01*
X85097D01*
X85284Y53981D01*
X85317Y54000D01*
X102896Y54000D01*
X102980Y54000D01*
X103145Y53967D01*
X103301Y53903D01*
X103379Y53850D01*
X103500Y53750D01*
X103500Y53585D01*
X103500Y47250D01*
X103512Y47013D01*
X103604Y46549D01*
X103785Y46112D01*
X104048Y45718D01*
X104207Y45543D01*
X104207D01*
X105506Y44244D01*
X105691Y44077D01*
X106105Y43800D01*
X106565Y43609D01*
X107053Y43512D01*
X107302Y43500D01*
X112000D01*
Y42750D01*
X106552D01*
X106302Y42750D01*
X105811Y42848D01*
X105349Y43039D01*
X104933Y43317D01*
X104756Y43494D01*
X104756Y43494D01*
X102744Y45506D01*
X102567Y45683D01*
X102289Y46099D01*
X102098Y46561D01*
X102000Y47052D01*
Y47302D01*
Y52500D01*
X79590D01*
X79465Y52500D01*
X79465Y52500D01*
X79250D01*
X79176Y52567D01*
X78991Y52644D01*
X78820Y52758D01*
X78714Y52854D01*
X78538Y52926D01*
X78210Y52992D01*
X78043Y53000D01*
X73604D01*
X73520Y52996D01*
X73356Y52963D01*
X73201Y52899D01*
X73062Y52806D01*
X73000Y52750D01*
Y51519D01*
X72967Y51355D01*
X72903Y51199D01*
X72809Y51059D01*
X72750Y51000D01*
X72151D01*
X71967Y51076D01*
X71826Y51217D01*
X71750Y51401D01*
Y54750D01*
X71750Y54750D01*
X71688Y54806D01*
X71549Y54899D01*
X71394Y54963D01*
X71230Y54996D01*
X71146Y55000D01*
X64250D01*
X64191Y54997D01*
X64075Y54974D01*
X63965Y54929D01*
X63867Y54863D01*
X63823Y54823D01*
X63750Y54750D01*
Y48604D01*
X63754Y48520D01*
X63787Y48356D01*
X63851Y48201D01*
X63944Y48062D01*
X64000Y48000D01*
X64062Y47944D01*
X64201Y47851D01*
X64356Y47787D01*
X64520Y47754D01*
X64604Y47750D01*
X69000D01*
Y46750D01*
X66134D01*
X65968Y46751D01*
X65968Y46751D01*
X65948Y46754D01*
X65909Y46758D01*
X65909Y46758D01*
X65869Y46757D01*
X65869Y46757D01*
X65856Y46756D01*
X65843Y46757D01*
X65809Y46750D01*
X63519D01*
X63355Y46783D01*
X63199Y46847D01*
X63059Y46941D01*
X63000Y47000D01*
X62927Y47073D01*
X62827Y47202D01*
X62819Y47214D01*
X62773Y47324D01*
X62750Y47441D01*
Y47500D01*
Y55500D01*
X62809Y55559D01*
X62949Y55653D01*
X63105Y55717D01*
X63269Y55750D01*
X72000D01*
X72000Y74750D01*
X71290D01*
X70799Y74848D01*
X70337Y75039D01*
X69921Y75317D01*
X69567Y75671D01*
X69289Y76087D01*
X69098Y76549D01*
X69000Y77040D01*
Y77290D01*
X69000Y82750D01*
X69000Y82750D01*
X69000Y82750D01*
X69008Y82836D01*
X68999Y83009D01*
X68956Y83177D01*
X68881Y83333D01*
X68777Y83472D01*
X68648Y83588D01*
X68499Y83676D01*
X68335Y83734D01*
X68250Y83750D01*
X53500Y84000D01*
X53500Y84000D01*
X53402Y83975D01*
X53199Y83965D01*
X52998Y83995D01*
X52807Y84064D01*
X52633Y84168D01*
X52482Y84305D01*
X52361Y84468D01*
X52275Y84651D01*
X52250Y84750D01*
Y85000D01*
X52250Y85000D01*
X52250Y85000D01*
X52245Y85049D01*
X52208Y85139D01*
X52208Y85139D01*
X52195Y85152D01*
X52139Y85208D01*
X52049Y85245D01*
X52000Y85250D01*
X44750Y85250D01*
X44627Y85275D01*
X44395Y85371D01*
X44186Y85511D01*
X44009Y85688D01*
X43870Y85897D01*
X43774Y86129D01*
X43725Y86376D01*
X43725Y86627D01*
X43750Y86750D01*
X43671Y93551D01*
X43677Y93553D01*
X43708Y93630D01*
Y107640D01*
X43677Y107717D01*
X43600Y107748D01*
X43506D01*
X43500Y108250D01*
X43500Y108250D01*
X43500Y108250D01*
X43524Y108406D01*
X43576Y108533D01*
X43717Y108674D01*
X43901Y108750D01*
X44000Y108750D01*
D02*
G37*
G36*
X157750Y78500D02*
Y78402D01*
X157712Y78208D01*
X157636Y78026D01*
X157527Y77863D01*
X157387Y77723D01*
X157224Y77614D01*
X157042Y77538D01*
X156848Y77500D01*
X151000D01*
X150877Y77494D01*
X150637Y77446D01*
X150411Y77352D01*
X150207Y77216D01*
X150034Y77043D01*
X149898Y76839D01*
X149804Y76613D01*
X149756Y76373D01*
X149750Y76250D01*
Y73000D01*
Y72902D01*
X149712Y72708D01*
X149636Y72526D01*
X149527Y72363D01*
X149387Y72223D01*
X149224Y72114D01*
X149042Y72038D01*
X148848Y72000D01*
X141500D01*
Y66750D01*
X141646Y66604D01*
Y66604D01*
X141734Y66524D01*
X141931Y66393D01*
X142150Y66302D01*
X142382Y66256D01*
X142500Y66250D01*
X147793D01*
X147793Y66250D01*
X147793Y66250D01*
X147961Y66250D01*
X148291Y66184D01*
X148602Y66056D01*
X148881Y65869D01*
X149000Y65750D01*
X149006Y65744D01*
X149006Y65744D01*
Y65744D01*
X149183Y65567D01*
X149461Y65151D01*
X149652Y64689D01*
X149750Y64198D01*
X149750Y63948D01*
X149750Y37026D01*
X149626Y36909D01*
X148250Y36985D01*
Y63250D01*
X147354Y64146D01*
X147354Y64146D01*
X147266Y64226D01*
X147069Y64357D01*
X146850Y64448D01*
X146618Y64494D01*
X146500Y64500D01*
X141250Y64500D01*
X140457Y65293D01*
X140457Y65293D01*
X140289Y65461D01*
X140025Y65856D01*
X139843Y66296D01*
X139750Y66762D01*
X139750Y67000D01*
X139750Y71698D01*
X139750Y71698D01*
X139750Y71698D01*
X139765Y71836D01*
X139764Y71862D01*
X139759Y72000D01*
X130500D01*
X130451Y71995D01*
X130361Y71958D01*
X130292Y71889D01*
X130255Y71799D01*
X130250Y71750D01*
Y70500D01*
Y70426D01*
X130221Y70281D01*
X130165Y70145D01*
X130083Y70022D01*
X129978Y69917D01*
X129855Y69835D01*
X129719Y69779D01*
X129574Y69750D01*
X129200D01*
X129108Y69788D01*
X129038Y69858D01*
X129000Y69950D01*
Y70000D01*
Y72000D01*
Y72098D01*
X129038Y72292D01*
X129114Y72474D01*
X129223Y72637D01*
X129363Y72777D01*
X129526Y72886D01*
X129708Y72962D01*
X129902Y73000D01*
X148000D01*
X148074Y73004D01*
X148218Y73032D01*
X148354Y73089D01*
X148476Y73170D01*
X148580Y73274D01*
X148661Y73396D01*
X148718Y73532D01*
X148746Y73676D01*
X148750Y73750D01*
Y77000D01*
Y77123D01*
X148798Y77365D01*
X148892Y77592D01*
X149029Y77797D01*
X149203Y77971D01*
X149408Y78108D01*
X149635Y78202D01*
X149877Y78250D01*
X155500D01*
X155598Y78260D01*
X155778Y78334D01*
X155916Y78472D01*
X155990Y78652D01*
X156000Y78750D01*
Y82500D01*
X157750D01*
Y78500D01*
D02*
G37*
D10*
X74500Y35750D02*
X147500D01*
X65250Y45000D02*
X74500Y35750D01*
X147500D02*
X148750Y37000D01*
X90250Y70500D02*
X101000D01*
X81000Y78500D02*
X82250D01*
X90250Y70500D01*
X84250Y79500D02*
X99750Y76250D01*
X109840Y123540D02*
X110040D01*
X111500Y125000D01*
X128700D01*
X130160Y123540D01*
X102250Y76750D02*
Y112250D01*
X108500Y118500D01*
Y122200D01*
X109840Y123540D01*
D118*
X129750Y47250D02*
G03*
X132737Y48487I0J4225D01*
G01*
X115750Y46750D02*
X116250Y47250D01*
X132737Y48487D02*
X140500Y56250D01*
X116250Y47250D02*
X129750D01*
X82250Y79500D02*
X83000Y80250D01*
X98750D02*
X102250Y76750D01*
X83000Y80250D02*
X98750D01*
D121*
X115040Y112700D02*
D03*
X82040D02*
D03*
X115040Y64700D02*
D03*
X82040D02*
D03*
D122*
X56830Y56500D02*
D03*
Y54000D02*
D03*
Y52000D02*
D03*
Y49500D02*
D03*
X54210Y56500D02*
D03*
Y54000D02*
D03*
Y52000D02*
D03*
Y49500D02*
D03*
D123*
X57180Y59570D02*
D03*
X51500D02*
D03*
X57180Y46430D02*
D03*
X51500D02*
D03*
D124*
X44050Y80235D02*
D03*
Y72235D02*
D03*
D125*
X59040Y40500D02*
D03*
X156893Y81264D02*
D03*
X115697Y37211D02*
D03*
D126*
X59040Y37960D02*
D03*
X56500Y40500D02*
D03*
Y37960D02*
D03*
X53960Y40500D02*
D03*
Y37960D02*
D03*
X51420Y40500D02*
D03*
Y37960D02*
D03*
X48880Y40500D02*
D03*
Y37960D02*
D03*
X153490Y58390D02*
D03*
X156030Y60930D02*
D03*
X153490D02*
D03*
X156030Y63470D02*
D03*
X153490D02*
D03*
X156030Y66010D02*
D03*
X153490D02*
D03*
X156030Y68550D02*
D03*
X153490D02*
D03*
X156030Y71090D02*
D03*
X153490D02*
D03*
X156030Y73630D02*
D03*
X153490D02*
D03*
X154353Y81264D02*
D03*
X151813D02*
D03*
X149273D02*
D03*
X52000Y118000D02*
D03*
X54540Y120540D02*
D03*
X52000D02*
D03*
X60289Y115551D02*
D03*
Y118091D02*
D03*
X65750Y115551D02*
D03*
Y118091D02*
D03*
X108077Y37211D02*
D03*
X110617D02*
D03*
X113157D02*
D03*
D127*
X51650Y106350D02*
D03*
Y94920D02*
D03*
X158000Y38000D02*
D03*
X43000Y123500D02*
D03*
X158000D02*
D03*
X43000Y38000D02*
D03*
D128*
X54700Y108485D02*
D03*
Y92785D02*
D03*
D129*
X60540Y106350D02*
D03*
D130*
X58000Y105080D02*
D03*
X60540Y103810D02*
D03*
X58000Y102540D02*
D03*
X60540Y101270D02*
D03*
X58000Y100000D02*
D03*
X60540Y98730D02*
D03*
X58000Y97460D02*
D03*
X60540Y96190D02*
D03*
X58000Y94920D02*
D03*
X54210Y103810D02*
D03*
Y97460D02*
D03*
D131*
X55480Y106350D02*
D03*
Y94920D02*
D03*
D132*
X47590Y107275D02*
D03*
Y104735D02*
D03*
Y96535D02*
D03*
Y93995D02*
D03*
D133*
X156030Y58390D02*
D03*
X54540Y118000D02*
D03*
X60289Y120631D02*
D03*
X65750D02*
D03*
D135*
X130160Y123540D02*
D03*
Y121000D02*
D03*
X127620Y123540D02*
D03*
Y121000D02*
D03*
X125080Y123540D02*
D03*
Y121000D02*
D03*
X122540Y123540D02*
D03*
Y121000D02*
D03*
X120000Y123540D02*
D03*
Y121000D02*
D03*
X117460Y123540D02*
D03*
Y121000D02*
D03*
X114920Y123540D02*
D03*
Y121000D02*
D03*
X112380Y123540D02*
D03*
Y121000D02*
D03*
X109840Y123540D02*
D03*
Y121000D02*
D03*
X107300Y123540D02*
D03*
Y121000D02*
D03*
X104760Y123540D02*
D03*
Y121000D02*
D03*
X102220Y123540D02*
D03*
Y121000D02*
D03*
X99680Y123540D02*
D03*
Y121000D02*
D03*
X97140Y123540D02*
D03*
Y121000D02*
D03*
X94600Y123540D02*
D03*
Y121000D02*
D03*
X92060Y123540D02*
D03*
Y121000D02*
D03*
X89520Y123540D02*
D03*
Y121000D02*
D03*
X86980Y123540D02*
D03*
Y121000D02*
D03*
X84440Y123540D02*
D03*
Y121000D02*
D03*
X81900Y123540D02*
D03*
Y121000D02*
D03*
D136*
X97150Y41950D02*
D03*
X92750D02*
D03*
D137*
X146920Y89900D02*
D03*
D138*
X149820Y94700D02*
D03*
D139*
X153220Y89900D02*
D03*
D140*
X69291Y96631D02*
D03*
X67736Y98014D02*
D03*
X68327Y96206D02*
D03*
X67500Y93750D02*
D03*
X68500Y94500D02*
D03*
X69000Y93750D02*
D03*
Y95000D02*
D03*
X65605Y88605D02*
D03*
X66750Y88500D02*
D03*
X65500Y87500D02*
D03*
X66168Y87575D02*
D03*
X68500Y89000D02*
D03*
X70000Y88250D02*
D03*
X69000D02*
D03*
X69500Y89000D02*
D03*
X94921Y55874D02*
D03*
X96000Y54500D02*
D03*
X95250D02*
D03*
X95500Y55500D02*
D03*
X81688Y88869D02*
D03*
X81250Y94500D02*
D03*
Y93500D02*
D03*
X65250Y45000D02*
D03*
X149000Y72750D02*
D03*
X129500Y70500D02*
D03*
X115750Y46750D02*
D03*
X140500Y56250D02*
D03*
X111500Y43000D02*
D03*
X101000Y70500D02*
D03*
X82250Y79500D02*
D03*
X81000Y78500D02*
D03*
X99750Y76250D02*
D03*
X84250Y79500D02*
D03*
X53500Y86250D02*
D03*
X70500Y85000D02*
D03*
X72500Y75500D02*
D03*
X68500Y47250D02*
D03*
X63450Y51440D02*
D03*
X65500Y47250D02*
D03*
X65250Y55250D02*
D03*
X72250Y53750D02*
D03*
Y51500D02*
D03*
X137000Y108000D02*
D03*
X79000Y86250D02*
D03*
X77500Y93000D02*
D03*
X77573Y91500D02*
D03*
X77500Y94750D02*
D03*
X68000Y95500D02*
D03*
X67750Y88000D02*
D03*
X77000Y76000D02*
D03*
X81690Y90695D02*
D03*
X81542Y90046D02*
D03*
X81486Y91552D02*
D03*
X81486Y92491D02*
D03*
X63500Y83000D02*
D03*
X75600Y79200D02*
D03*
X48748Y112352D02*
D03*
X77500Y78500D02*
D03*
Y79500D02*
D03*
X144000Y71500D02*
D03*
X84802Y78802D02*
D03*
X84000Y75500D02*
D03*
X84552Y77052D02*
D03*
X120000Y71000D02*
D03*
X81500Y85500D02*
D03*
Y86500D02*
D03*
X78865Y90000D02*
D03*
X81564Y87364D02*
D03*
X81448Y88052D02*
D03*
X76500Y78500D02*
D03*
X78000Y90500D02*
D03*
X79000Y89000D02*
D03*
X67000Y97500D02*
D03*
X73500Y91000D02*
D03*
X52500Y88500D02*
D03*
X72000Y90500D02*
D03*
X79000Y87500D02*
D03*
D141*
X85000Y54666D02*
D03*
X102250Y76750D02*
D03*
X79750Y53250D02*
D03*
X130750Y61500D02*
D03*
X135750Y88000D02*
D03*
X125250Y92750D02*
D03*
X119750Y94750D02*
D03*
X59500Y83000D02*
D03*
X52250Y65250D02*
D03*
X66500Y63250D02*
D03*
X79500Y59500D02*
D03*
X96500Y58500D02*
D03*
X91500Y49500D02*
D03*
X72500Y40000D02*
D03*
X88000Y37000D02*
D03*
X64500D02*
D03*
X76500Y68500D02*
D03*
X75500Y52000D02*
D03*
X56500Y74000D02*
D03*
X58000Y75000D02*
D03*
X57500Y79500D02*
D03*
X57000Y81500D02*
D03*
M02*
