G04*
G04 #@! TF.GenerationSoftware,Altium Limited,Altium Designer,25.2.1 (25)*
G04*
G04 Layer_Color=8388736*
%FSLAX43Y43*%
%MOMM*%
G71*
G04*
G04 #@! TF.SameCoordinates,0A798D29-7D92-4AD3-8B22-41AEFD2D755B*
G04*
G04*
G04 #@! TF.FilePolarity,Negative*
G04*
G01*
G75*
%ADD56R,0.503X0.753*%
%ADD57R,0.603X0.753*%
%ADD58R,0.753X0.503*%
%ADD59R,0.753X0.603*%
%ADD60R,0.803X0.733*%
%ADD61R,0.733X0.803*%
%ADD62R,0.903X0.403*%
%ADD63R,1.473X5.283*%
%ADD64R,4.163X4.163*%
%ADD65R,2.403X1.403*%
%ADD66R,1.603X1.803*%
%ADD67R,1.803X0.903*%
%ADD68R,1.603X1.403*%
%ADD69R,1.203X1.623*%
%ADD70R,0.693X0.803*%
%ADD71R,0.503X1.603*%
%ADD72R,2.413X1.993*%
%ADD73R,1.353X0.803*%
%ADD74R,1.203X0.603*%
%ADD75R,0.803X0.693*%
%ADD76R,0.623X0.903*%
%ADD77R,0.623X0.743*%
%ADD78R,2.573X1.913*%
%ADD79R,5.703X2.203*%
%ADD80R,1.623X1.203*%
%ADD81R,1.653X0.653*%
%ADD82R,0.803X1.353*%
G04:AMPARAMS|DCode=83|XSize=4.053mm|YSize=4.053mm|CornerRadius=0mm|HoleSize=0mm|Usage=FLASHONLY|Rotation=90.000|XOffset=0mm|YOffset=0mm|HoleType=Round|Shape=RoundedRectangle|*
%AMROUNDEDRECTD83*
21,1,4.053,4.053,0,0,90.0*
21,1,4.053,4.053,0,0,90.0*
1,1,0.000,2.027,2.027*
1,1,0.000,2.027,-2.027*
1,1,0.000,-2.027,-2.027*
1,1,0.000,-2.027,2.027*
%
%ADD83ROUNDEDRECTD83*%
%ADD84C,0.503*%
%ADD85R,0.703X2.503*%
%ADD86R,2.203X2.703*%
%ADD87R,2.003X1.203*%
%ADD88R,2.913X3.553*%
%ADD89R,1.728X0.853*%
%ADD90R,0.803X1.453*%
%ADD91R,5.303X2.553*%
%ADD92R,1.203X1.303*%
%ADD93R,1.303X1.203*%
%ADD94R,1.673X1.173*%
%ADD95R,0.853X1.453*%
%ADD96R,1.753X0.903*%
%ADD97C,6.003*%
%ADD98C,1.631*%
%ADD99C,2.503*%
%ADD100C,0.703*%
%ADD101R,1.703X1.703*%
%ADD102C,1.703*%
%ADD103C,3.553*%
%ADD104C,2.753*%
%ADD105R,1.711X1.711*%
%ADD106C,1.711*%
%ADD107C,1.611*%
%ADD108C,1.883*%
%ADD109R,1.703X1.703*%
%ADD110R,1.928X1.928*%
%ADD111C,1.928*%
%ADD112C,1.103*%
%ADD113O,2.403X4.603*%
%ADD114O,4.203X2.203*%
%ADD115O,2.203X4.203*%
%ADD116C,0.603*%
%ADD117C,1.473*%
D56*
X93500Y56615D02*
D03*
X94000D02*
D03*
X95000D02*
D03*
X95500D02*
D03*
Y57385D02*
D03*
X95000D02*
D03*
X94000D02*
D03*
X93500D02*
D03*
X69000Y86230D02*
D03*
X68500D02*
D03*
X67500D02*
D03*
X67000D02*
D03*
Y87000D02*
D03*
X67500D02*
D03*
X68500D02*
D03*
X69000D02*
D03*
D57*
X94500Y56615D02*
D03*
Y57385D02*
D03*
X68000Y86230D02*
D03*
Y87000D02*
D03*
D58*
X67060Y94631D02*
D03*
Y95131D02*
D03*
Y96131D02*
D03*
Y96631D02*
D03*
X66290D02*
D03*
Y96131D02*
D03*
Y95131D02*
D03*
Y94631D02*
D03*
D59*
X67060Y95631D02*
D03*
X66290D02*
D03*
D60*
X79500Y51500D02*
D03*
Y50626D02*
D03*
Y48437D02*
D03*
Y47563D02*
D03*
X93000Y48437D02*
D03*
Y47563D02*
D03*
Y50563D02*
D03*
Y51437D02*
D03*
X88500Y50626D02*
D03*
Y51500D02*
D03*
Y48437D02*
D03*
Y47563D02*
D03*
X84000D02*
D03*
Y48437D02*
D03*
Y50626D02*
D03*
Y51500D02*
D03*
X80000Y42626D02*
D03*
Y43500D02*
D03*
X76500Y37063D02*
D03*
Y37937D02*
D03*
X80000Y37063D02*
D03*
Y37937D02*
D03*
X63000Y43500D02*
D03*
Y44374D02*
D03*
X76500Y43437D02*
D03*
Y42563D02*
D03*
X127048Y99811D02*
D03*
Y100685D02*
D03*
X151881Y99811D02*
D03*
Y100685D02*
D03*
X146914Y99811D02*
D03*
Y100685D02*
D03*
X136981Y99811D02*
D03*
Y100685D02*
D03*
X141948Y99811D02*
D03*
Y100685D02*
D03*
X132000Y90563D02*
D03*
Y91437D02*
D03*
X135500Y90563D02*
D03*
Y91437D02*
D03*
X117602Y52761D02*
D03*
Y51887D02*
D03*
X69000Y64626D02*
D03*
Y63752D02*
D03*
X64000Y64626D02*
D03*
Y63752D02*
D03*
D61*
X123096Y116062D02*
D03*
X122222D02*
D03*
X60474Y111000D02*
D03*
X59600D02*
D03*
X137937Y106750D02*
D03*
X137063D02*
D03*
X123096Y107426D02*
D03*
X122222D02*
D03*
X137096Y109204D02*
D03*
X137970D02*
D03*
X122222Y112125D02*
D03*
X123096D02*
D03*
X132126Y80000D02*
D03*
X133000D02*
D03*
X122222Y95996D02*
D03*
X123096D02*
D03*
X127937Y114070D02*
D03*
X127063D02*
D03*
X122222Y99298D02*
D03*
X123096D02*
D03*
Y103235D02*
D03*
X122222D02*
D03*
X150437Y104500D02*
D03*
X149563D02*
D03*
X136898Y69326D02*
D03*
X137772D02*
D03*
X123166Y64548D02*
D03*
X124040D02*
D03*
X128109Y61000D02*
D03*
X127235D02*
D03*
D62*
X117080Y76400D02*
D03*
X114000D02*
D03*
X117080Y76800D02*
D03*
X114000D02*
D03*
X117080Y77200D02*
D03*
X114000D02*
D03*
X117080Y77600D02*
D03*
X114000D02*
D03*
X117080Y78000D02*
D03*
X114000D02*
D03*
X117080Y78400D02*
D03*
X114000D02*
D03*
X117080Y78800D02*
D03*
X114000D02*
D03*
X117080Y79200D02*
D03*
X114000D02*
D03*
X117080Y79600D02*
D03*
X114000D02*
D03*
X117080Y80000D02*
D03*
X114000D02*
D03*
X117080Y80400D02*
D03*
X114000D02*
D03*
X117080Y80800D02*
D03*
X114000D02*
D03*
X117080Y81200D02*
D03*
X114000D02*
D03*
X117080Y81600D02*
D03*
X114000D02*
D03*
X117080Y82000D02*
D03*
X114000D02*
D03*
X117080Y82400D02*
D03*
X114000D02*
D03*
X117080Y82800D02*
D03*
X114000D02*
D03*
X117080Y83200D02*
D03*
X114000D02*
D03*
X117080Y83600D02*
D03*
X114000D02*
D03*
X117080Y84000D02*
D03*
X114000D02*
D03*
X117080Y84400D02*
D03*
X114000D02*
D03*
X117080Y84800D02*
D03*
X114000D02*
D03*
X117080Y85200D02*
D03*
X114000D02*
D03*
X117080Y85600D02*
D03*
X114000D02*
D03*
X117080Y86000D02*
D03*
X114000D02*
D03*
X117080Y86400D02*
D03*
X114000D02*
D03*
X117080Y86800D02*
D03*
X114000D02*
D03*
X117080Y87200D02*
D03*
X114000D02*
D03*
X117080Y87600D02*
D03*
X114000D02*
D03*
X117080Y88000D02*
D03*
X114000D02*
D03*
X117080Y88400D02*
D03*
X114000D02*
D03*
X117080Y88800D02*
D03*
X114000D02*
D03*
X117080Y89200D02*
D03*
X114000D02*
D03*
X117080Y89600D02*
D03*
X114000D02*
D03*
X117080Y90000D02*
D03*
X114000D02*
D03*
X117080Y90400D02*
D03*
X114000D02*
D03*
X117080Y90800D02*
D03*
X114000D02*
D03*
X117080Y91200D02*
D03*
X114000D02*
D03*
X117080Y91600D02*
D03*
X114000D02*
D03*
X117080Y92000D02*
D03*
X114000D02*
D03*
X117080Y92400D02*
D03*
X114000D02*
D03*
X117080Y92800D02*
D03*
X114000D02*
D03*
X117080Y93200D02*
D03*
X114000D02*
D03*
X117080Y93600D02*
D03*
X114000D02*
D03*
X117080Y94000D02*
D03*
X114000D02*
D03*
X117080Y94400D02*
D03*
X114000D02*
D03*
X117080Y94800D02*
D03*
X114000D02*
D03*
X117080Y95200D02*
D03*
X114000D02*
D03*
X117080Y95600D02*
D03*
X114000D02*
D03*
X117080Y96000D02*
D03*
X114000D02*
D03*
X83080Y76400D02*
D03*
X80000D02*
D03*
X83080Y76800D02*
D03*
X80000D02*
D03*
X83080Y77200D02*
D03*
X80000D02*
D03*
X83080Y77600D02*
D03*
X80000D02*
D03*
X83080Y78000D02*
D03*
X80000D02*
D03*
X83080Y78400D02*
D03*
X80000D02*
D03*
X83080Y78800D02*
D03*
X80000D02*
D03*
X83080Y79200D02*
D03*
X80000D02*
D03*
X83080Y79600D02*
D03*
X80000D02*
D03*
X83080Y80000D02*
D03*
X80000D02*
D03*
X83080Y80400D02*
D03*
X80000D02*
D03*
X83080Y80800D02*
D03*
X80000D02*
D03*
X83080Y81200D02*
D03*
X80000D02*
D03*
X83080Y81600D02*
D03*
X80000D02*
D03*
X83080Y82000D02*
D03*
X80000D02*
D03*
X83080Y82400D02*
D03*
X80000D02*
D03*
X83080Y82800D02*
D03*
X80000D02*
D03*
X83080Y83200D02*
D03*
X80000D02*
D03*
X83080Y83600D02*
D03*
X80000D02*
D03*
X83080Y84000D02*
D03*
X80000D02*
D03*
X83080Y84400D02*
D03*
X80000D02*
D03*
X83080Y84800D02*
D03*
X80000D02*
D03*
X83080Y85200D02*
D03*
X80000D02*
D03*
X83080Y85600D02*
D03*
X80000D02*
D03*
X83080Y86000D02*
D03*
X80000D02*
D03*
X83080Y86400D02*
D03*
X80000D02*
D03*
X83080Y86800D02*
D03*
X80000D02*
D03*
X83080Y87200D02*
D03*
X80000D02*
D03*
X83080Y87600D02*
D03*
X80000D02*
D03*
X83080Y88000D02*
D03*
X80000D02*
D03*
X83080Y88400D02*
D03*
X80000D02*
D03*
X83080Y88800D02*
D03*
X80000D02*
D03*
X83080Y89200D02*
D03*
X80000D02*
D03*
X83080Y89600D02*
D03*
X80000D02*
D03*
X83080Y90000D02*
D03*
X80000D02*
D03*
X83080Y90400D02*
D03*
X80000D02*
D03*
X83080Y90800D02*
D03*
X80000D02*
D03*
X83080Y91200D02*
D03*
X80000D02*
D03*
X83080Y91600D02*
D03*
X80000D02*
D03*
X83080Y92000D02*
D03*
X80000D02*
D03*
X83080Y92400D02*
D03*
X80000D02*
D03*
X83080Y92800D02*
D03*
X80000D02*
D03*
X83080Y93200D02*
D03*
X80000D02*
D03*
X83080Y93600D02*
D03*
X80000D02*
D03*
X83080Y94000D02*
D03*
X80000D02*
D03*
X83080Y94400D02*
D03*
X80000D02*
D03*
X83080Y94800D02*
D03*
X80000D02*
D03*
X83080Y95200D02*
D03*
X80000D02*
D03*
X83080Y95600D02*
D03*
X80000D02*
D03*
X83080Y96000D02*
D03*
X80000D02*
D03*
D63*
X120889Y44688D02*
D03*
X142859D02*
D03*
D64*
X131874D02*
D03*
D65*
X44450Y83035D02*
D03*
Y67535D02*
D03*
D66*
X54050Y68435D02*
D03*
D67*
X54550Y81835D02*
D03*
Y80735D02*
D03*
Y79635D02*
D03*
Y78535D02*
D03*
Y77435D02*
D03*
Y76335D02*
D03*
Y75235D02*
D03*
Y74135D02*
D03*
Y73035D02*
D03*
D68*
X54050Y83035D02*
D03*
D69*
X47798Y114427D02*
D03*
X45928D02*
D03*
X47065Y88500D02*
D03*
X48935D02*
D03*
X67000Y37000D02*
D03*
X68870D02*
D03*
X86870Y39000D02*
D03*
X85000D02*
D03*
X132065Y95500D02*
D03*
X133935D02*
D03*
X86935Y43500D02*
D03*
X85065D02*
D03*
D70*
X124060Y61000D02*
D03*
X123146D02*
D03*
X111457Y44500D02*
D03*
X110543D02*
D03*
X76000Y87000D02*
D03*
X75086D02*
D03*
D71*
X81000Y59700D02*
D03*
X81500D02*
D03*
X82000D02*
D03*
X82500D02*
D03*
X83000D02*
D03*
Y55300D02*
D03*
X82500D02*
D03*
X82000D02*
D03*
X81500D02*
D03*
X81000D02*
D03*
D72*
X72500Y42040D02*
D03*
Y44960D02*
D03*
X157909Y99298D02*
D03*
Y102218D02*
D03*
D73*
X67250Y44450D02*
D03*
Y43500D02*
D03*
Y42550D02*
D03*
X69750D02*
D03*
Y43500D02*
D03*
Y44450D02*
D03*
D74*
X74500Y77000D02*
D03*
Y77650D02*
D03*
Y78300D02*
D03*
X72500D02*
D03*
Y77000D02*
D03*
X148000Y72000D02*
D03*
Y70700D02*
D03*
X146000D02*
D03*
Y71350D02*
D03*
Y72000D02*
D03*
X123873Y69453D02*
D03*
Y70103D02*
D03*
Y70753D02*
D03*
X121873D02*
D03*
Y69453D02*
D03*
D75*
X67100Y77143D02*
D03*
Y78057D02*
D03*
X132500Y99791D02*
D03*
Y100705D02*
D03*
X125778Y71180D02*
D03*
Y70266D02*
D03*
X55500Y85293D02*
D03*
Y86207D02*
D03*
D76*
X133975Y87955D02*
D03*
X133325D02*
D03*
X132675D02*
D03*
X132025D02*
D03*
D77*
Y84875D02*
D03*
X132675D02*
D03*
X133325D02*
D03*
X133975D02*
D03*
D78*
X133000Y86000D02*
D03*
D79*
X61750Y70500D02*
D03*
X71250D02*
D03*
D80*
X144500Y106565D02*
D03*
Y108435D02*
D03*
X58000Y63500D02*
D03*
Y65370D02*
D03*
X132500Y112000D02*
D03*
Y113870D02*
D03*
X150000Y112435D02*
D03*
Y110565D02*
D03*
X123000Y78500D02*
D03*
Y76630D02*
D03*
X128000Y78500D02*
D03*
Y76630D02*
D03*
X63500Y85000D02*
D03*
Y86870D02*
D03*
D81*
X109220Y50800D02*
D03*
Y51450D02*
D03*
Y52100D02*
D03*
Y52750D02*
D03*
X113670D02*
D03*
Y52100D02*
D03*
Y51450D02*
D03*
Y50800D02*
D03*
D82*
X137500Y58600D02*
D03*
X138460Y56400D02*
D03*
X136540D02*
D03*
D83*
X68000Y51500D02*
D03*
D84*
X66000Y54300D02*
D03*
X66500D02*
D03*
X67000D02*
D03*
X67500D02*
D03*
X68000D02*
D03*
X68500D02*
D03*
X69000D02*
D03*
X69500D02*
D03*
X70000D02*
D03*
X70800Y53500D02*
D03*
Y53000D02*
D03*
Y52500D02*
D03*
Y52000D02*
D03*
Y51500D02*
D03*
Y51000D02*
D03*
Y50500D02*
D03*
Y50000D02*
D03*
Y49500D02*
D03*
X70000Y48700D02*
D03*
X69500D02*
D03*
X69000D02*
D03*
X68500D02*
D03*
X68000D02*
D03*
X67500D02*
D03*
X67000D02*
D03*
X66500D02*
D03*
X66000D02*
D03*
X65200Y49500D02*
D03*
Y50000D02*
D03*
Y50500D02*
D03*
Y51000D02*
D03*
Y51500D02*
D03*
Y52000D02*
D03*
Y52500D02*
D03*
Y53000D02*
D03*
Y53500D02*
D03*
D85*
X96550Y44600D02*
D03*
X95750D02*
D03*
X94950D02*
D03*
X94150D02*
D03*
X93350D02*
D03*
D86*
X99400Y44500D02*
D03*
X90500D02*
D03*
X99400Y39000D02*
D03*
X90500D02*
D03*
D87*
X127556Y65536D02*
D03*
Y68036D02*
D03*
D88*
X129715Y106791D02*
D03*
D89*
X132403Y108696D02*
D03*
Y107426D02*
D03*
Y106156D02*
D03*
Y104886D02*
D03*
X127027D02*
D03*
Y106156D02*
D03*
Y107426D02*
D03*
Y108696D02*
D03*
D90*
X128000Y92950D02*
D03*
X127045Y95050D02*
D03*
X128955D02*
D03*
D91*
X143500Y117575D02*
D03*
Y113425D02*
D03*
D92*
X72000Y86850D02*
D03*
Y85150D02*
D03*
D93*
X68650Y75500D02*
D03*
X70350D02*
D03*
D94*
X59500Y78830D02*
D03*
Y77170D02*
D03*
D95*
X58560Y84750D02*
D03*
X59500D02*
D03*
X60440D02*
D03*
Y87250D02*
D03*
X58560D02*
D03*
D96*
X130927Y67294D02*
D03*
Y66024D02*
D03*
Y64754D02*
D03*
Y63484D02*
D03*
X136377D02*
D03*
Y64754D02*
D03*
Y66024D02*
D03*
Y67294D02*
D03*
D97*
X115040Y112700D02*
D03*
X82040D02*
D03*
X115040Y64700D02*
D03*
X82040D02*
D03*
D98*
X56830Y56500D02*
D03*
Y54000D02*
D03*
Y52000D02*
D03*
Y49500D02*
D03*
X54210Y56500D02*
D03*
Y54000D02*
D03*
Y52000D02*
D03*
Y49500D02*
D03*
D99*
X57180Y59570D02*
D03*
X51500D02*
D03*
X57180Y46430D02*
D03*
X51500D02*
D03*
D100*
X44050Y80235D02*
D03*
Y72235D02*
D03*
D101*
X59040Y40500D02*
D03*
X156893Y81264D02*
D03*
X115697Y37211D02*
D03*
D102*
X59040Y37960D02*
D03*
X56500Y40500D02*
D03*
Y37960D02*
D03*
X53960Y40500D02*
D03*
Y37960D02*
D03*
X51420Y40500D02*
D03*
Y37960D02*
D03*
X48880Y40500D02*
D03*
Y37960D02*
D03*
X153490Y58390D02*
D03*
X156030Y60930D02*
D03*
X153490D02*
D03*
X156030Y63470D02*
D03*
X153490D02*
D03*
X156030Y66010D02*
D03*
X153490D02*
D03*
X156030Y68550D02*
D03*
X153490D02*
D03*
X156030Y71090D02*
D03*
X153490D02*
D03*
X156030Y73630D02*
D03*
X153490D02*
D03*
X154353Y81264D02*
D03*
X151813D02*
D03*
X149273D02*
D03*
X52000Y118000D02*
D03*
X54540Y120540D02*
D03*
X52000D02*
D03*
X60289Y115551D02*
D03*
Y118091D02*
D03*
X65750Y115551D02*
D03*
Y118091D02*
D03*
X108077Y37211D02*
D03*
X110617D02*
D03*
X113157D02*
D03*
D103*
X51650Y106350D02*
D03*
Y94920D02*
D03*
X158000Y38000D02*
D03*
X43000Y123500D02*
D03*
X158000D02*
D03*
X43000Y38000D02*
D03*
D104*
X54700Y108485D02*
D03*
Y92785D02*
D03*
D105*
X60540Y106350D02*
D03*
D106*
X58000Y105080D02*
D03*
X60540Y103810D02*
D03*
X58000Y102540D02*
D03*
X60540Y101270D02*
D03*
X58000Y100000D02*
D03*
X60540Y98730D02*
D03*
X58000Y97460D02*
D03*
X60540Y96190D02*
D03*
X58000Y94920D02*
D03*
X54210Y103810D02*
D03*
Y97460D02*
D03*
D107*
X55480Y106350D02*
D03*
Y94920D02*
D03*
D108*
X47590Y107275D02*
D03*
Y104735D02*
D03*
Y96535D02*
D03*
Y93995D02*
D03*
D109*
X156030Y58390D02*
D03*
X54540Y118000D02*
D03*
X60289Y120631D02*
D03*
X65750D02*
D03*
D110*
X130160Y123540D02*
D03*
D111*
Y121000D02*
D03*
X127620Y123540D02*
D03*
Y121000D02*
D03*
X125080Y123540D02*
D03*
Y121000D02*
D03*
X122540Y123540D02*
D03*
Y121000D02*
D03*
X120000Y123540D02*
D03*
Y121000D02*
D03*
X117460Y123540D02*
D03*
Y121000D02*
D03*
X114920Y123540D02*
D03*
Y121000D02*
D03*
X112380Y123540D02*
D03*
Y121000D02*
D03*
X109840Y123540D02*
D03*
Y121000D02*
D03*
X107300Y123540D02*
D03*
Y121000D02*
D03*
X104760Y123540D02*
D03*
Y121000D02*
D03*
X102220Y123540D02*
D03*
Y121000D02*
D03*
X99680Y123540D02*
D03*
Y121000D02*
D03*
X97140Y123540D02*
D03*
Y121000D02*
D03*
X94600Y123540D02*
D03*
Y121000D02*
D03*
X92060Y123540D02*
D03*
Y121000D02*
D03*
X89520Y123540D02*
D03*
Y121000D02*
D03*
X86980Y123540D02*
D03*
Y121000D02*
D03*
X84440Y123540D02*
D03*
Y121000D02*
D03*
X81900Y123540D02*
D03*
Y121000D02*
D03*
D112*
X97150Y41950D02*
D03*
X92750D02*
D03*
D113*
X146920Y89900D02*
D03*
D114*
X149820Y94700D02*
D03*
D115*
X153220Y89900D02*
D03*
D116*
X69291Y96631D02*
D03*
X67736Y98014D02*
D03*
X68327Y96206D02*
D03*
X67500Y93750D02*
D03*
X68500Y94500D02*
D03*
X69000Y93750D02*
D03*
Y95000D02*
D03*
X65605Y88605D02*
D03*
X66750Y88500D02*
D03*
X65500Y87500D02*
D03*
X66168Y87575D02*
D03*
X68500Y89000D02*
D03*
X70000Y88250D02*
D03*
X69000D02*
D03*
X69500Y89000D02*
D03*
X94921Y55874D02*
D03*
X96000Y54500D02*
D03*
X95250D02*
D03*
X95500Y55500D02*
D03*
X81688Y88869D02*
D03*
X81250Y94500D02*
D03*
Y93500D02*
D03*
X65250Y45000D02*
D03*
X149000Y72750D02*
D03*
X129500Y70500D02*
D03*
X115750Y46750D02*
D03*
X140500Y56250D02*
D03*
X111500Y43000D02*
D03*
X101000Y70500D02*
D03*
X82250Y79500D02*
D03*
X81000Y78500D02*
D03*
X99750Y76250D02*
D03*
X84250Y79500D02*
D03*
X53500Y86250D02*
D03*
X70500Y85000D02*
D03*
X72500Y75500D02*
D03*
X68500Y47250D02*
D03*
X63450Y51440D02*
D03*
X65500Y47250D02*
D03*
X65250Y55250D02*
D03*
X72250Y53750D02*
D03*
Y51500D02*
D03*
X137000Y108000D02*
D03*
X79000Y86250D02*
D03*
X77500Y93000D02*
D03*
X77573Y91500D02*
D03*
X77500Y94750D02*
D03*
X68000Y95500D02*
D03*
X67750Y88000D02*
D03*
X77000Y76000D02*
D03*
X81690Y90695D02*
D03*
X81542Y90046D02*
D03*
X81486Y91552D02*
D03*
X81486Y92491D02*
D03*
X63500Y83000D02*
D03*
X75600Y79200D02*
D03*
X48748Y112352D02*
D03*
X77500Y78500D02*
D03*
Y79500D02*
D03*
X144000Y71500D02*
D03*
X84802Y78802D02*
D03*
X84000Y75500D02*
D03*
X84552Y77052D02*
D03*
X120000Y71000D02*
D03*
X81500Y85500D02*
D03*
Y86500D02*
D03*
X78865Y90000D02*
D03*
X81564Y87364D02*
D03*
X81448Y88052D02*
D03*
X76500Y78500D02*
D03*
X78000Y90500D02*
D03*
X79000Y89000D02*
D03*
X67000Y97500D02*
D03*
X73500Y91000D02*
D03*
X52500Y88500D02*
D03*
X72000Y90500D02*
D03*
X79000Y87500D02*
D03*
D117*
X85000Y54666D02*
D03*
X102250Y76750D02*
D03*
X79750Y53250D02*
D03*
X130750Y61500D02*
D03*
X135750Y88000D02*
D03*
X125250Y92750D02*
D03*
X119750Y94750D02*
D03*
X59500Y83000D02*
D03*
X52250Y65250D02*
D03*
X66500Y63250D02*
D03*
X79500Y59500D02*
D03*
X96500Y58500D02*
D03*
X91500Y49500D02*
D03*
X72500Y40000D02*
D03*
X88000Y37000D02*
D03*
X64500D02*
D03*
X76500Y68500D02*
D03*
X75500Y52000D02*
D03*
X56500Y74000D02*
D03*
X58000Y75000D02*
D03*
X57500Y79500D02*
D03*
X57000Y81500D02*
D03*
M02*
