G04*
G04 #@! TF.GenerationSoftware,Altium Limited,Altium Designer,25.2.1 (25)*
G04*
G04 Layer_Color=8421504*
%FSLAX43Y43*%
%MOMM*%
G71*
G04*
G04 #@! TF.SameCoordinates,0A798D29-7D92-4AD3-8B22-41AEFD2D755B*
G04*
G04*
G04 #@! TF.FilePolarity,Positive*
G04*
G01*
G75*
%ADD16R,0.300X0.550*%
%ADD17R,0.400X0.550*%
%ADD18R,0.550X0.300*%
%ADD19R,0.550X0.400*%
%ADD20R,0.600X0.530*%
%ADD21R,0.530X0.600*%
%ADD22R,0.700X0.200*%
%ADD23R,1.270X5.080*%
%ADD24R,2.200X1.200*%
%ADD25R,1.400X1.600*%
%ADD26R,1.600X0.700*%
%ADD27R,1.400X1.200*%
%ADD28R,1.000X1.420*%
%ADD29R,0.490X0.600*%
%ADD30R,0.300X1.400*%
%ADD31R,2.210X1.790*%
%ADD32R,1.150X0.600*%
%ADD33R,1.000X0.400*%
%ADD34R,0.600X0.490*%
%ADD35R,0.420X0.700*%
%ADD36R,0.420X0.540*%
%ADD37R,2.370X1.710*%
%ADD38R,5.500X2.000*%
%ADD39R,1.420X1.000*%
%ADD40R,1.450X0.450*%
%ADD41R,0.600X1.150*%
G04:AMPARAMS|DCode=42|XSize=3.85mm|YSize=3.85mm|CornerRadius=0mm|HoleSize=0mm|Usage=FLASHONLY|Rotation=90.000|XOffset=0mm|YOffset=0mm|HoleType=Round|Shape=RoundedRectangle|*
%AMROUNDEDRECTD42*
21,1,3.850,3.850,0,0,90.0*
21,1,3.850,3.850,0,0,90.0*
1,1,0.000,1.925,1.925*
1,1,0.000,1.925,-1.925*
1,1,0.000,-1.925,-1.925*
1,1,0.000,-1.925,1.925*
%
%ADD42ROUNDEDRECTD42*%
%ADD43C,0.300*%
%ADD44R,0.500X2.300*%
%ADD45R,2.000X2.500*%
%ADD46R,1.800X1.000*%
%ADD47R,2.710X3.350*%
%ADD48R,1.525X0.650*%
%ADD49R,0.600X1.250*%
%ADD50R,5.100X2.350*%
%ADD51R,1.000X1.100*%
%ADD52R,1.100X1.000*%
%ADD53R,1.470X0.970*%
%ADD54R,0.650X1.250*%
%ADD55R,1.550X0.700*%
D16*
X93500Y56615D02*
D03*
X94000D02*
D03*
X95000D02*
D03*
X95500D02*
D03*
Y57385D02*
D03*
X95000D02*
D03*
X94000D02*
D03*
X93500D02*
D03*
X69000Y86230D02*
D03*
X68500D02*
D03*
X67500D02*
D03*
X67000D02*
D03*
Y87000D02*
D03*
X67500D02*
D03*
X68500D02*
D03*
X69000D02*
D03*
D17*
X94500Y56615D02*
D03*
Y57385D02*
D03*
X68000Y86230D02*
D03*
Y87000D02*
D03*
D18*
X67060Y94631D02*
D03*
Y95131D02*
D03*
Y96131D02*
D03*
Y96631D02*
D03*
X66290D02*
D03*
Y96131D02*
D03*
Y95131D02*
D03*
Y94631D02*
D03*
D19*
X67060Y95631D02*
D03*
X66290D02*
D03*
D20*
X79500Y51500D02*
D03*
Y50626D02*
D03*
Y48437D02*
D03*
Y47563D02*
D03*
X93000Y48437D02*
D03*
Y47563D02*
D03*
Y50563D02*
D03*
Y51437D02*
D03*
X88500Y50626D02*
D03*
Y51500D02*
D03*
Y48437D02*
D03*
Y47563D02*
D03*
X84000D02*
D03*
Y48437D02*
D03*
Y50626D02*
D03*
Y51500D02*
D03*
X80000Y42626D02*
D03*
Y43500D02*
D03*
X76500Y37063D02*
D03*
Y37937D02*
D03*
X80000Y37063D02*
D03*
Y37937D02*
D03*
X63000Y43500D02*
D03*
Y44374D02*
D03*
X76500Y43437D02*
D03*
Y42563D02*
D03*
X127048Y99811D02*
D03*
Y100685D02*
D03*
X151881Y99811D02*
D03*
Y100685D02*
D03*
X146914Y99811D02*
D03*
Y100685D02*
D03*
X136981Y99811D02*
D03*
Y100685D02*
D03*
X141948Y99811D02*
D03*
Y100685D02*
D03*
X132000Y90563D02*
D03*
Y91437D02*
D03*
X135500Y90563D02*
D03*
Y91437D02*
D03*
X117602Y52761D02*
D03*
Y51887D02*
D03*
X69000Y64626D02*
D03*
Y63752D02*
D03*
X64000Y64626D02*
D03*
Y63752D02*
D03*
D21*
X123096Y116062D02*
D03*
X122222D02*
D03*
X60474Y111000D02*
D03*
X59600D02*
D03*
X137937Y106750D02*
D03*
X137063D02*
D03*
X123096Y107426D02*
D03*
X122222D02*
D03*
X137096Y109204D02*
D03*
X137970D02*
D03*
X122222Y112125D02*
D03*
X123096D02*
D03*
X132126Y80000D02*
D03*
X133000D02*
D03*
X122222Y95996D02*
D03*
X123096D02*
D03*
X127937Y114070D02*
D03*
X127063D02*
D03*
X122222Y99298D02*
D03*
X123096D02*
D03*
Y103235D02*
D03*
X122222D02*
D03*
X150437Y104500D02*
D03*
X149563D02*
D03*
X136898Y69326D02*
D03*
X137772D02*
D03*
X123166Y64548D02*
D03*
X124040D02*
D03*
X128109Y61000D02*
D03*
X127235D02*
D03*
D22*
X117080Y76400D02*
D03*
X114000D02*
D03*
X117080Y76800D02*
D03*
X114000D02*
D03*
X117080Y77200D02*
D03*
X114000D02*
D03*
X117080Y77600D02*
D03*
X114000D02*
D03*
X117080Y78000D02*
D03*
X114000D02*
D03*
X117080Y78400D02*
D03*
X114000D02*
D03*
X117080Y78800D02*
D03*
X114000D02*
D03*
X117080Y79200D02*
D03*
X114000D02*
D03*
X117080Y79600D02*
D03*
X114000D02*
D03*
X117080Y80000D02*
D03*
X114000D02*
D03*
X117080Y80400D02*
D03*
X114000D02*
D03*
X117080Y80800D02*
D03*
X114000D02*
D03*
X117080Y81200D02*
D03*
X114000D02*
D03*
X117080Y81600D02*
D03*
X114000D02*
D03*
X117080Y82000D02*
D03*
X114000D02*
D03*
X117080Y82400D02*
D03*
X114000D02*
D03*
X117080Y82800D02*
D03*
X114000D02*
D03*
X117080Y83200D02*
D03*
X114000D02*
D03*
X117080Y83600D02*
D03*
X114000D02*
D03*
X117080Y84000D02*
D03*
X114000D02*
D03*
X117080Y84400D02*
D03*
X114000D02*
D03*
X117080Y84800D02*
D03*
X114000D02*
D03*
X117080Y85200D02*
D03*
X114000D02*
D03*
X117080Y85600D02*
D03*
X114000D02*
D03*
X117080Y86000D02*
D03*
X114000D02*
D03*
X117080Y86400D02*
D03*
X114000D02*
D03*
X117080Y86800D02*
D03*
X114000D02*
D03*
X117080Y87200D02*
D03*
X114000D02*
D03*
X117080Y87600D02*
D03*
X114000D02*
D03*
X117080Y88000D02*
D03*
X114000D02*
D03*
X117080Y88400D02*
D03*
X114000D02*
D03*
X117080Y88800D02*
D03*
X114000D02*
D03*
X117080Y89200D02*
D03*
X114000D02*
D03*
X117080Y89600D02*
D03*
X114000D02*
D03*
X117080Y90000D02*
D03*
X114000D02*
D03*
X117080Y90400D02*
D03*
X114000D02*
D03*
X117080Y90800D02*
D03*
X114000D02*
D03*
X117080Y91200D02*
D03*
X114000D02*
D03*
X117080Y91600D02*
D03*
X114000D02*
D03*
X117080Y92000D02*
D03*
X114000D02*
D03*
X117080Y92400D02*
D03*
X114000D02*
D03*
X117080Y92800D02*
D03*
X114000D02*
D03*
X117080Y93200D02*
D03*
X114000D02*
D03*
X117080Y93600D02*
D03*
X114000D02*
D03*
X117080Y94000D02*
D03*
X114000D02*
D03*
X117080Y94400D02*
D03*
X114000D02*
D03*
X117080Y94800D02*
D03*
X114000D02*
D03*
X117080Y95200D02*
D03*
X114000D02*
D03*
X117080Y95600D02*
D03*
X114000D02*
D03*
X117080Y96000D02*
D03*
X114000D02*
D03*
X83080Y76400D02*
D03*
X80000D02*
D03*
X83080Y76800D02*
D03*
X80000D02*
D03*
X83080Y77200D02*
D03*
X80000D02*
D03*
X83080Y77600D02*
D03*
X80000D02*
D03*
X83080Y78000D02*
D03*
X80000D02*
D03*
X83080Y78400D02*
D03*
X80000D02*
D03*
X83080Y78800D02*
D03*
X80000D02*
D03*
X83080Y79200D02*
D03*
X80000D02*
D03*
X83080Y79600D02*
D03*
X80000D02*
D03*
X83080Y80000D02*
D03*
X80000D02*
D03*
X83080Y80400D02*
D03*
X80000D02*
D03*
X83080Y80800D02*
D03*
X80000D02*
D03*
X83080Y81200D02*
D03*
X80000D02*
D03*
X83080Y81600D02*
D03*
X80000D02*
D03*
X83080Y82000D02*
D03*
X80000D02*
D03*
X83080Y82400D02*
D03*
X80000D02*
D03*
X83080Y82800D02*
D03*
X80000D02*
D03*
X83080Y83200D02*
D03*
X80000D02*
D03*
X83080Y83600D02*
D03*
X80000D02*
D03*
X83080Y84000D02*
D03*
X80000D02*
D03*
X83080Y84400D02*
D03*
X80000D02*
D03*
X83080Y84800D02*
D03*
X80000D02*
D03*
X83080Y85200D02*
D03*
X80000D02*
D03*
X83080Y85600D02*
D03*
X80000D02*
D03*
X83080Y86000D02*
D03*
X80000D02*
D03*
X83080Y86400D02*
D03*
X80000D02*
D03*
X83080Y86800D02*
D03*
X80000D02*
D03*
X83080Y87200D02*
D03*
X80000D02*
D03*
X83080Y87600D02*
D03*
X80000D02*
D03*
X83080Y88000D02*
D03*
X80000D02*
D03*
X83080Y88400D02*
D03*
X80000D02*
D03*
X83080Y88800D02*
D03*
X80000D02*
D03*
X83080Y89200D02*
D03*
X80000D02*
D03*
X83080Y89600D02*
D03*
X80000D02*
D03*
X83080Y90000D02*
D03*
X80000D02*
D03*
X83080Y90400D02*
D03*
X80000D02*
D03*
X83080Y90800D02*
D03*
X80000D02*
D03*
X83080Y91200D02*
D03*
X80000D02*
D03*
X83080Y91600D02*
D03*
X80000D02*
D03*
X83080Y92000D02*
D03*
X80000D02*
D03*
X83080Y92400D02*
D03*
X80000D02*
D03*
X83080Y92800D02*
D03*
X80000D02*
D03*
X83080Y93200D02*
D03*
X80000D02*
D03*
X83080Y93600D02*
D03*
X80000D02*
D03*
X83080Y94000D02*
D03*
X80000D02*
D03*
X83080Y94400D02*
D03*
X80000D02*
D03*
X83080Y94800D02*
D03*
X80000D02*
D03*
X83080Y95200D02*
D03*
X80000D02*
D03*
X83080Y95600D02*
D03*
X80000D02*
D03*
X83080Y96000D02*
D03*
X80000D02*
D03*
D23*
X120889Y44688D02*
D03*
X142859D02*
D03*
D24*
X44450Y83035D02*
D03*
Y67535D02*
D03*
D25*
X54050Y68435D02*
D03*
D26*
X54550Y81835D02*
D03*
Y80735D02*
D03*
Y79635D02*
D03*
Y78535D02*
D03*
Y77435D02*
D03*
Y76335D02*
D03*
Y75235D02*
D03*
Y74135D02*
D03*
Y73035D02*
D03*
D27*
X54050Y83035D02*
D03*
D28*
X47798Y114427D02*
D03*
X45928D02*
D03*
X47065Y88500D02*
D03*
X48935D02*
D03*
X67000Y37000D02*
D03*
X68870D02*
D03*
X86870Y39000D02*
D03*
X85000D02*
D03*
X132065Y95500D02*
D03*
X133935D02*
D03*
X86935Y43500D02*
D03*
X85065D02*
D03*
D29*
X124060Y61000D02*
D03*
X123146D02*
D03*
X111457Y44500D02*
D03*
X110543D02*
D03*
X76000Y87000D02*
D03*
X75086D02*
D03*
D30*
X81000Y59700D02*
D03*
X81500D02*
D03*
X82000D02*
D03*
X82500D02*
D03*
X83000D02*
D03*
Y55300D02*
D03*
X82500D02*
D03*
X82000D02*
D03*
X81500D02*
D03*
X81000D02*
D03*
D31*
X72500Y42040D02*
D03*
Y44960D02*
D03*
X157909Y99298D02*
D03*
Y102218D02*
D03*
D32*
X67250Y44450D02*
D03*
Y43500D02*
D03*
Y42550D02*
D03*
X69750D02*
D03*
Y43500D02*
D03*
Y44450D02*
D03*
D33*
X74500Y77000D02*
D03*
Y77650D02*
D03*
Y78300D02*
D03*
X72500D02*
D03*
Y77000D02*
D03*
X148000Y72000D02*
D03*
Y70700D02*
D03*
X146000D02*
D03*
Y71350D02*
D03*
Y72000D02*
D03*
X123873Y69453D02*
D03*
Y70103D02*
D03*
Y70753D02*
D03*
X121873D02*
D03*
Y69453D02*
D03*
D34*
X67100Y77143D02*
D03*
Y78057D02*
D03*
X132500Y99791D02*
D03*
Y100705D02*
D03*
X125778Y71180D02*
D03*
Y70266D02*
D03*
X55500Y85293D02*
D03*
Y86207D02*
D03*
D35*
X133975Y87955D02*
D03*
X133325D02*
D03*
X132675D02*
D03*
X132025D02*
D03*
D36*
Y84875D02*
D03*
X132675D02*
D03*
X133325D02*
D03*
X133975D02*
D03*
D37*
X133000Y86000D02*
D03*
D38*
X61750Y70500D02*
D03*
X71250D02*
D03*
D39*
X144500Y106565D02*
D03*
Y108435D02*
D03*
X58000Y63500D02*
D03*
Y65370D02*
D03*
X132500Y112000D02*
D03*
Y113870D02*
D03*
X150000Y112435D02*
D03*
Y110565D02*
D03*
X123000Y78500D02*
D03*
Y76630D02*
D03*
X128000Y78500D02*
D03*
Y76630D02*
D03*
X63500Y85000D02*
D03*
Y86870D02*
D03*
D40*
X109220Y50800D02*
D03*
Y51450D02*
D03*
Y52100D02*
D03*
Y52750D02*
D03*
X113670D02*
D03*
Y52100D02*
D03*
Y51450D02*
D03*
Y50800D02*
D03*
D41*
X137500Y58600D02*
D03*
X138460Y56400D02*
D03*
X136540D02*
D03*
D42*
X68000Y51500D02*
D03*
D43*
X66000Y54300D02*
D03*
X66500D02*
D03*
X67000D02*
D03*
X67500D02*
D03*
X68000D02*
D03*
X68500D02*
D03*
X69000D02*
D03*
X69500D02*
D03*
X70000D02*
D03*
X70800Y53500D02*
D03*
Y53000D02*
D03*
Y52500D02*
D03*
Y52000D02*
D03*
Y51500D02*
D03*
Y51000D02*
D03*
Y50500D02*
D03*
Y50000D02*
D03*
Y49500D02*
D03*
X70000Y48700D02*
D03*
X69500D02*
D03*
X69000D02*
D03*
X68500D02*
D03*
X68000D02*
D03*
X67500D02*
D03*
X67000D02*
D03*
X66500D02*
D03*
X66000D02*
D03*
X65200Y49500D02*
D03*
Y50000D02*
D03*
Y50500D02*
D03*
Y51000D02*
D03*
Y51500D02*
D03*
Y52000D02*
D03*
Y52500D02*
D03*
Y53000D02*
D03*
Y53500D02*
D03*
D44*
X96550Y44600D02*
D03*
X95750D02*
D03*
X94950D02*
D03*
X94150D02*
D03*
X93350D02*
D03*
D45*
X99400Y44500D02*
D03*
X90500D02*
D03*
X99400Y39000D02*
D03*
X90500D02*
D03*
D46*
X127556Y65536D02*
D03*
Y68036D02*
D03*
D47*
X129715Y106791D02*
D03*
D48*
X132403Y108696D02*
D03*
Y107426D02*
D03*
Y106156D02*
D03*
Y104886D02*
D03*
X127027D02*
D03*
Y106156D02*
D03*
Y107426D02*
D03*
Y108696D02*
D03*
D49*
X128000Y92950D02*
D03*
X127045Y95050D02*
D03*
X128955D02*
D03*
D50*
X143500Y117575D02*
D03*
Y113425D02*
D03*
D51*
X72000Y86850D02*
D03*
Y85150D02*
D03*
D52*
X68650Y75500D02*
D03*
X70350D02*
D03*
D53*
X59500Y78830D02*
D03*
Y77170D02*
D03*
D54*
X58560Y84750D02*
D03*
X59500D02*
D03*
X60440D02*
D03*
Y87250D02*
D03*
X58560D02*
D03*
D55*
X130927Y67294D02*
D03*
Y66024D02*
D03*
Y64754D02*
D03*
Y63484D02*
D03*
X136377D02*
D03*
Y64754D02*
D03*
Y66024D02*
D03*
Y67294D02*
D03*
M02*
